<?xml version="1.0" encoding="UTF-8"?>
<svg xmlns="http://www.w3.org/2000/svg" viewBox="0 0 128 128">
  <!-- Fundal alb pentru iconita de aplicatie (App Icon Background) -->
  <rect width="128" height="128" rx="24" fill="#ffffff"/>
  
  <!-- Centrare si scalare logo original in interiorul patratului de 128x128 -->
  <g transform="translate(20, 22) scale(1)">
    <path d="M27.36,31.03c.29-.36.88-.37,1.16,0,.86-.26.7.5-.15.35-.06.29.65.29.88.26l.17.25c-.05.39-.94.56-1.16.25-.08.89-.12,1.79-.13,2.7.32.38.32.73,0,1.1.11.49.11.98,0,1.47.25.28.25.58,0,.86.01.62.07,1.21.17,1.78l.22-.06c.29-.41.71-.5,1.16-.25.05-.33.12-.3.26,0,.34,0,.35.15.13.38.43.2.67.53.13.72v.17c-.56.16-1.13.34-1.71.55-.14.95-.17,1.91-.1,2.88l-.25.2c.04.55.08,1.08.13,1.59.11.03.11.08,0,.12-.16.86-.64-.07-.73-.57l-.43-.28c-.11-.23-.11-.5,0-.74.88-.22.42-1.93,0-2.45.01-2.06-.03-4.06-.13-6,0-.32.02-.65-.01-.97-.97-.13-1.8-.38-2.69-.75l-.02-.17c.3-.24.6-.47.92-.69.48-.21,1.5-.08,1.81.37.05-.78.1-1.55.13-2.33-.36-.01-.32-.22-.07-.44l-.06-.29c.03-.12.26-.06.39,0Z" fill="#1c3c63"/>
    <path d="M23.88,50.38l.29.07c.03.46.09.92.18,1.37.44-.23.55-.19.44.28.32.18.28.85-.13.86-.37.45-.54,1.11-.33,1.63-.16.36-.18.68-.05.94.31.88.35,2.23.27,3.19.04.28-.07.52-.27.73-.28-.85-.3-.7-.07.43.17.89,0,1.31-.52,1.25.07.63-.47.67-.83.28-.37-.58-.46-1.35-.18-1.97-.06-1.1-.05-2.2.05-3.3-.38-.62-.22-1.77.26-2.33-.4-.18-.14-1.4.26-1.59-.76.06-1.08-.11-.95-.52-.48-.14-.56-.4-.08-.58.43-.12.81-.33,1.34-.26.15-.05.26-.33.34-.47Z" fill="#1c3c63"/>
    <path d="M19.11,53.69h.23c.55-1.38,1.29.15.93.86.35.19.35.42,0,.61.06,1.68.06,3.39,0,5.15.11.02.11.06,0,.12.27.42.27.71,0,.86.1.4.05.57-.39.74.03.21-.05.29-.25.25.14.29.18.85-.13.85-.73-1.14-.73-1.77-.77-3.06.16-1.57.09-3.34,0-4.9.05-.77.1-.81.39-1.47Z" fill="#1d3c62"/>
    <path d="M45.67,70.6c.51-.07,1.04-.13,1.55,0,.41.04.84.03,1.29-.01.13.38.29.73.45,1.06-.13.23-3.43.27-3.97.24l1.72.06h-5.29c.04-.08.09-.09.17-.07l-2.47-.09c-.18-.14-.06-1.37.44-1.17l.05-.14c.23-.1.47-.18.73-.19.89-.04,4.39-.05,4.98.15.12.04.24.1.36.16Z" fill="#1f4268"/>
    <path d="M67.85,61.78c.1-.15.18-.19.26-.12.32.27.58.56.77.86-.48,1.11-1.57,2.07-2.77,2.46-.61.2-1.71.22-2.13.43-.2.1-.46.67-.65.92-.26.12-.31.23-.39.49-.28.21-.72.4-1.03.16-.41.4-1.04.03-.65-.41-.24-.15-.16-.26.13-.25-.17-.36,0-.53.39-.49-.19-.3-.07-.41.26-.25.41.08.96-.81,1.11-1.2.1-.26.08-.53-.08-.76l.33-.55c.29-.09,1.22,0,1.03.45l.19-.02c.57.15,1.12-.19,1.56-.53l.38.04c-.06-.35.25-.45.52-.25.24.41.62-.31.39-.61-.36-.19-.19-.89.26-.74.09.07.13.19.13.37Z" fill="#1b3f67"/>
    <path d="M61.14,31.88c.21-.29.58-.25.64.12.6-.1,1.08-.06,1.42.12.03.43-.47.46-.77.25-.11.44-1.22.52-1.42.12.43.1.39,1.55,0,1.72l.09-.26,1.94-.64.41.16c1.01-.02,1.6.48.52.98-.29.22-.62.36-.96.49-.4.15-1.8.37-1.88.42-.18.11-.11.39-.12.56-.3.24-.81.37-1.03,0-.04-.34-.09-.71-.13-1.1-.02-.52-.06-1.05-.13-1.59-.2-.04-.2-.24,0-.61-.15.11-.23.06-.26-.12-.11-.03-.11-.08,0-.12-.2-.74.75-.66,1.29-.61.25-.24.33-.21.39.12Z" fill="#1d3e65"/>
    <path d="M68.75,53.32c.43.81.46,1.04.52,1.96l-.08,2.45-.17.06c.09,0,.16.02.17.06.15.35-.05,2.61-.17,3.01.15.52-.36,1.92-.63.67l-.27.13c-.08.03-.16.13-.26.12.07-.73.07-1.46,0-2.21-.36-.28-.37-.7,0-.98.12-.96.12-1.9,0-2.82l-.26-.13c.15-.16.23-.41.26-.73-.13-.28-.04-.61.11-.88-.6-.63.26-1.27.8-.71Z" fill="#1e3e63"/>
    <path d="M61.01,35.93c-.03.32,0,.66,0,.98-.08,2.81-.12,5.59-.13,8.33-.38.15-.49.25-.74.65l-.29-.04c-.6-.8-.35-2.32-.08-3.26.01-.43.04-.86.08-1.27l.18-.06c.5.59.49.1.4-.46-.08-.46-.26-1.06-.45-1.44-.06-1.14-.12-2.3,0-3.43.33-.17.59.22.71-.24l.32.24Z" fill="#1c3b5f"/>
    <path d="M32.13,69.25c.67-.2,1.95.15,2.45.61.25.18.16.3-.1.41-.61.11-.61.38-.29.76l-.38.05c-2.04-.41-3.69-.76-5.54-1.72-.37-.24-.03-.42.33-.45.13-.25.32-.47.58-.65l.25-.15c.86.35,1.74.63,2.64.85l.08.28Z" fill="#1e3f63"/>
    <path d="M51.47,70.23l.54-.06c-.1.71.33.85.99.87l.02.29c-1.48.25-2.73.47-4.26.49l-1.03.12c-.34,0-.69,0-1.03,0-1.44,0-2.88,0-4.32,0-.18-.02-.04-.49.19-.49.02,1.03.74-.09.84-.1.33-.03.38.22.2.46.36.12.22-.21.26-.24.27-.18.25.19.28.21.28.22.89-.53,1.2-.58.24.31-.25.42-.32.61.43-.03.93.06,1.35,0,.23-.03.3-.2.39-.24.1-.04.02.23.14.25.08.02,1.53-.13,1.63-.16.53-.14-.02-.22-.08-.37-.07-.16-.07-.56-.09-.58-.1-.1-.97.15-1.16-.13.14-.04.32-.08.52-.12.11-.1.26-.05.39,0,.56-.39,1.73-.46,2.47-.47.38-.09.68-.02.88.22Z" fill="#1d4064"/>
    <path d="M58.3,68.52c.23-.08.28-.08.13.12.11.07.23.12.39.12.58-.02.23.69,0,.98-1.5.66-2.41.87-4,1.23-.15-.01-.28-.08-.27-.21.04-.47-.4-.6-.89-.63l-.12-.27.34-.34c1.34-.28,2.66-.64,3.94-1.08l.48.07Z" fill="#1b3f65"/>
    <path d="M46.83,11.91c-.48.27-.83.64-1.03,1.1l-.23.23c-.96-.05-1.93-.05-2.89,0l-.23-.23c-.55.05-.88-.06-1.01-.34-1.38.27-2.08-.4-.27-.54.02,0-.36.05-.39-.11,1.4-.36,3-.44,4.45-.37.46.02,1.17.12,1.61.24Z" fill="#204069"/>
    <path d="M36.77,70.23c.07-.1.16-.22.28-.25.4-.1,2.26.16,2.55.49l1.03.24c-.28,0-1.1-.04-1.27.14-.03.03,0,.69-.14.84l2.84.12c0,.22-.48.12-.64.12-2.35.06-4.79-.31-7.09-.74-.18-.38.23-.39.58-.35.9.28,1,.11,1.35-.68l.52.05Z" fill="#1e3f64"/>
    <path d="M23.49,63.74c-.08-.66.08-.88.47-.64.03-.32.22-.49.56-.37.08.4.21.69.39.88.38-.1.67.62.39.86.29.73.14.93-.57,1.32-.14.08-.36.03-.46-.09-.06-.11-.13-.35-.21-.37-.83.05-1.61-.2-2.37-.49.16.03.07-.1-.26-.36.33-.16.57-.43.71-.79l.57.05c.1-.31.58-.18.77,0Z" fill="#1d3f6a"/>
    <path d="M62.82,48.3c.67.83,1.04,1.3,1.42,2.33l-.06.13c.32.69.26,1.19-.18,1.5.06.41.04,1.25-.54.82l-.31-.21c-.27-1.08-.69-2.15-1.3-3.1l.06-.36c-.29-.37.21-1.02.54-1.29l.36.19Z" fill="#1d4168"/>
    <path d="M18.46,25.51c.21-.07.42.04.63.33l.27-1.34c.31-.29.59-.27.52.15.21.26.25.63.13,1.11.08.54,0,.94-.25,1.22l.64,1.93-.13.39.13.22c-.21.03-.35.14-.42.34-.28-.07-.57-.14-.87-.2-.6-1.46-.79-2.61-.64-4.17Z" fill="#1b365d"/>
    <path d="M27.36,67.17c.25.26.25.35.07.63-.07.12-.78.73-.85.47-1.19-.89-1.58-1.29-2.32-2.57.14-.18.44-.08.58-.25.18-.22-.18-.5.45-.24v-.73s.32.08.32.08c.45.85,1.03,1.65,1.76,2.31v.31Z" fill="#1b3b63"/>
    <path d="M61.4,46.95c.29.28-.39,1.22-.77,1.1l-.3.09-1.89-.7c-.12.03-.16,0-.13-.12l-.02-.36c.38-.26.73-.55,1.05-.86.06-.18.23-.26.52-.25.2-.27.44-.52.52-.86l.51.24c.11.02.13,1.16.13,1.1-.14-1.6-.13-3.19,0-4.78.21.13.13.47.13.67.02,1.43.04,2.87-.08,4.3,0,.05.28.38.33.42Z" fill="#1d426a"/>
    <path d="M25.17,48.3c.53-.49,1.04.57.9,1.1l.08.33c-.44.69-.81,1.43-1.06,2.2l-.32.16c.03-.62-.38.34-.58,0-.35-.59-.11-1.14-.32-1.72.51-.93.58-1.21,1.29-2.08Z" fill="#1c3e67"/>
    <path d="M46.83,11.91c1.05.02,2.12.4,3.09.74.05.19-.08.39-.39.58-.04.43-.21.56-.51.4l-.24.19c-.93-.25-1.88-.43-2.84-.54l-.15-.26-.39-.24.39-.06-.26-.31c.81-.12.31-.51,1.29-.49Z" fill="#1d3b61"/>
    <path d="M64.24,50.63c.02.05-.03.22,0,.24.05.03.51,0,.69.02.33.05.58.16.86.23.43.39-.19.54-.61.44.64.44.27.81-.42.66.46.28.72,1.4.26,1.72l.06.54c-.67-.12-1.03.08-1.07.6l-.29.08c-.49-.32-.57-1.61-.26-2.08l.26-.12c.12-.2-.03-.64.02-.78.07-.17.34-.16.37-.29.11-.41-.38-.94.12-1.26Z" fill="#1e3e63"/>
    <path d="M69.14,29.07c-.26.06-.47-.12-.62-.53-.11.39-.5.65-.54.16l-.17-.46c.09-1.04.23-2.07.43-3.1-.12-.63.45-.34.43.2.2-.28.44-.47.73-.57.32,1.6.25,2.73-.26,4.29Z" fill="#1e385e"/>
    <path d="M40.77,12.04c.17,0,.34,0,.52,0-.14.43-.85.05-1.03.49l1.55-.12c-.07.17-.2.31,0,.43l.65.18-.13.26c-1.05.13-2.1.37-3.11.66l-.24-.18c-.13.02-.23-.03-.28-.14-.74.32-.76-.51-.21-.73l-.03-.23c.73-.25,1.54-.59,2.32-.61Z" fill="#1e3c62"/>
    <path d="M19.49,22.33c.81-.9.77-.01.28.66l.11.07c.13-.19.22-.24.26,0,.19-.27.31-.19.26.12.28.27-.12,1.41-.52,1.47l-.26-.17c-.14.59-.34,1.14-.26,1.76-.51-.18-.6-.36-.9-.74.12-1.33.43-2.03,1.03-3.19Z" fill="#1e3b63"/>
    <path d="M53.53,69.86s.73.11.82.14c.16.05.42.68.98.47.02.25-.79.16-.52.49-.61.14-1.18.26-1.81.37-.41-.31-1.4.16-1.03-.61h-.39s0-.37,0-.37l.39-.12c-.17,0-.34,0-.52,0-.06-.37,1.7-.66,1.9-.61l.16.24Z" fill="#1f456c"/>
    <path d="M67.07,20.37c.29.26-.59.96-.9.74l-.28.07c-.59-.56-1.24-1.07-1.94-1.52l.02-.27c-.19-.36.17-1.21.64-.98,1.08.61,1.62,1.08,2.45,1.96Z" fill="#1e3f69"/>
    <path d="M67.59,23.18c-.12-.32-.03-.4.26-.53.04-.68.19-.77.6-.2,0,0-.11-.09.04-.13.51.95.69,1.38.9,2.45-.07.39-.35.48-.48.65-.08.11-.02.31-.04.33-.36.33-.55-.55-.52-.86l-.13.24c-.04.11-.08.11-.13,0-.25-.11-.39-.39-.4-.85-.25-.48-.29-.85-.12-1.11Z" fill="#213d63"/>
    <path d="M23.36,18.41c.34.1.7.2,1.09.29l.2.32v.27c-.82.46-1.6,1.03-2.3,1.65l-.28-.08c-.51.28-.84.12-.99-.48l.21-.38c.8-.77,1.05-1.03,2.06-1.59Z" fill="#1d3e69"/>
    <path d="M27.1,45.48c.85-.31.79.8.9.98.03.05.22-.12.26-.12.03-.05.07-.08.11-.09.14-.02,1.31.89,1.31,1.07l-.15.27c-.72.05-1.39.24-2,.55l-.3-.09c-.25-.1-.51-.27-.53-.55-.35-.02-.58-.1-.38-.43.17-.15.39-.57.64-.61h.09c-.05-.32-.07-.67.03-.98Z" fill="#1c3e66"/>
    <path d="M67.59,29.56c.25.09.27.37.06.86.38-.07.62.01.71.25-.09.15-.17.24-.26.37-.18.11-.31.27-.39.49-.48.59-.69.82-1.29,1.35-.61.44-1.57.24-.87-.49l-.04-.24-.04-.3,1.14-1.29h.32c-.17-.39.2-.97.64-.98Z" fill="#1a3960"/>
    <path d="M64.62,18.41c-.37.21-.35.69-.64.98l-.27.14c-.82-.41-1.7-.75-2.6-.97l-.1-.27c-.02-.05-.04-.11-.04-.16,0-.08,1.11-.81,1.33-.7.96.28,1.46.49,2.32.98Z" fill="#1d3a60"/>
    <path d="M32.77,16.2c.61-.06.65.55.52.98.17.31-.59,1.16-.87,1.4l-.29-.06c-.16.15-.41.15-.77,0l-.23-.14c-.79.14-1.18.02-1.19-.35.48-.14.57-.51.26-1.1.44-.14,1.27.28,1.6.22.07-.01.8-.79.98-.95Z" fill="#1f3e6a"/>
    <path d="M20.27,29.31c.47-.17,1.12,1.13.9,1.47.43.59.36.72-.06,1.3l-.32.05c-.69-.74-.95-1.06-1.42-1.96.05-.13,0-.26-.13-.37-.02-.03-.11-.07-.13-.12l.32-.37.45.49-.26-1.1c.35.08.33.5.51.68.14.13.13-.07.13-.06Z" fill="#1c3d67"/>
    <path d="M68.49,22.33c-.02.64-.17-.26-.39,0-.03.04.06.31-.03.46-.04.07-.43.22-.48.4-.35-.11-.63-.41-.84-.91-.41-.41-.61-.81-.58-1.18l.9-.74c.7.75.94,1.06,1.42,1.96Z" fill="#1b385f"/>
    <path d="M53.79,14.61c.33.3-.27,1.14-.64,1.1-.76-.06-1.9-.74-2.32-1.35-.29-.57.44-.94,1.03-.86.67.34,1.31.66,1.93,1.1Z" fill="#1c3c65"/>
    <path d="M28.9,68.03c.28-.22.39-.05.26.25.17.56-.05.31-.27.58-.09.11-.08.37-.13.4-.05.04-.44-.23-.51.12-.64-.33-1.11-.68-1.68-1.1.28-.03.14-.33.15-.35.21-.2.58,0,.62-.75l.26-.12c.45.29.88.62,1.29.97Z" fill="#1e426c"/>
    <path d="M22.2,51.12l-.13.12c0,.27.48.21.52.25.08.08-.16.36-.07.49.15.2.64-.07.71.24-.24.3-.65.52-1.22.66-.41.31-.78.46-1.1.44-.57-.16-.88-.62-.64-1.23.75-.64.98-.73,1.93-.98Z" fill="#1a3960"/>
    <path d="M36,13.75c.6-.2.56.03.13.37.17.01.25.09.26.25.12-.09.36-.03.39.12-.14-.14.2-.07.13.12-.14.06-.26.14-.39.25l.05.29c-.11.18-1.71,1.18-1.99.93-.59-.05-.88-.73-.39-1.1.64-.49,1.07-.81,1.81-1.23Z" fill="#1c3c67"/>
    <path d="M30.19,16.94c.14.01.49.25.77.12.04.24-.31.07-.39.12-.03.02.1.71.13.73.07.07.54-.14.52.12-.43,0-.86,0-1.29,0-.38.24-.78.24-1.16,0-1.02.2-1.42.1-1.22-.3.5-.11.22-.32-.15-.4l-.04-.28c.83-.16,1.99-.2,2.84-.12Z" fill="#1e3a60"/>
    <path d="M65.78,51.12c.88.21,1.12.31,1.81.86.37.4.06.78-.46.64-.15.37-.34.44-.57.22-.39.21-1.6-.16-1.81-.61,1.23-.34-.1-.34-.13-.98l1.03.12.13-.24Z" fill="#1c395d"/>
    <path d="M21.68,31.27c.37.03.71.25,1.03.68.4.23.62.49.65.79-.09.41-.59.7-1.03.74-.68-.48-.98-.74-1.55-1.35-.11-.26.27-.23.26-.31-.01-.24-.32-.29-.26-.55l.51.24-.13-.73c.35-.08.7.15.52.49Z" fill="#1a3760"/>
    <path d="M25.17,33.6c.11.03.11.08,0,.12,0,.49-.47.68-.9.86-.78-.32-1.27-.63-1.93-1.1.13-.46.29-.26.38-.32.16-.11.22-.36.65-.41l.28-.12,1.42.71.11.27Z" fill="#1c406b"/>
    <path d="M51.86,13.51c-.03.18-.13.76-.26.86s-.44-.17-.38-.24c.02-.04.5-.05.39-.37-.45-.11-.5.34-.77.61l-.23.17c-.41-.11-1.5-.54-1.58-.9.43.06.08-.1.24-.43.14-.29.39-.39.66-.55.78.27,1.22.49,1.93.86Z" fill="#1f406a"/>
    <path d="M65.53,32.13c.82.25-.01.33,0,.73h.9c-.73.64-1.43,1.34-2.45,1.59.01-.01-.05-.16.03-.22.11-.09.44.1.36-.21-.18-.31-.47-.25-.74-.34-.08-.03-.13-.2-.16-.21-.11-.03-.11-.08,0-.12.2-.4,1.2-1.07,1.68-.98-.14-.33.08-.43.39-.25Z" fill="#1e406a"/>
    <path d="M36.77,70.23c-.13,0-.26,0-.39,0l.26.18c-.39.05-.62.75-.66.78-.37.22-1.28-.34-1.66.02-.21-.04-.36-.09-.52-.12l.32-.12c-.59.03-.46-.46-.2-.79.05-.06.56-.05.65-.32.54-.3,1.84-.14,2.19.37Z" fill="#204369"/>
    <path d="M25.68,17.43c.45.09,1.54.69.77.98-.18.44-1.38.81-1.81.61-.33.15-.42-.25-.46-.25-.49.01-.46.39-.83-.36.86-.48,1.36-.7,2.32-.98Z" fill="#1c3961"/>
    <path d="M68.75,53.32c-.43.2-.73-.26-.76.44,0,.06.25.05.25.12.03.26-.34.75-.39,1.03-.04.11-.08.11-.13,0l-.27-.1c-.12-.64-.44-1.27-.95-1.72l.06-.27c.27-.03.34-.43.4-.48.23-.15.5.47.63-.38.62.5.79.65,1.16,1.35Z" fill="#1f3f67"/>
    <path d="M62.3,17.43l-.81.7-.48.16-.27.21c-1.02-.13-2.06-.15-3.09-.1l-.25-.23c-.11-.03-.11-.08,0-.12.46-.24,1.04-.32,1.73-.26.34-.6.57-.78,1.29-.66.04,0-.84.08-.69-.18,1.01.05,1.63.21,2.58.49Z" fill="#264268"/>
    <path d="M59.72,16.94l.77.12c-.04.23-.45.11-.68.24-.03.02-.34.41-.35.44-.12.34.43.04.38.3-.79-.05-1.67.08-2.45,0-.41.23-.54.19-.39-.12.32-.32.38-.4.13-.86.04,0,.09,0,.13,0,.2-.09.42-.13.64-.12.55-.03,1.25-.03,1.81,0Z" fill="#1f3a5e"/>
    <path d="M56.63,17.18c.75-.19.93.37.39.74.06.19.22.11.39.12v.12c-.02.17-.15.29-.39.37-.32.32-.61.23-.88-.27l-.28-.1c-.53-.03-1.18-.73-1.16-1.23-.23-.25-.05-.39.28-.41-.04-.34.17-.45.62-.33.39.39.55.77,1.03.98Z" fill="#21406a"/>
    <path d="M26.33,47.08c.19.33.63.09.64.12.03.05-.04.28,0,.4s.39.12.25.46c.06.44-.69,1.3-1.16,1.35-.36-.06-.13-.43-.19-.5-.19-.23-.68.12-.33-.54l-.39-.06c.44-.55.61-.73,1.16-1.23Z" fill="#1a3961"/>
    <path d="M62.82,48.3c-.81.07-.35.34-.45.49-.11.16-.47.14-.45.61-.43.01-1.33-.94-1.29-1.35l.77-1.1c.7.57.81.6,1.42,1.35Z" fill="#1a3d63"/>
    <path d="M27.36,17.06s.52.25.77.12c-.39.63.36.33.39.37.08.12-.07.3-.21.35-.22.07-.67-.1-.69.14.39,0,.77,0,1.16,0-.38.49-1.74.61-2.32.37l.19-.25h-.71s.39-.37.39-.37c-.13-.04-.88.16-.9.12-.22-.31.55-.29.26-.49.57-.17,1.04-.4,1.68-.37Z" fill="#223e67"/>
    <path d="M68.88,62.51c-.5-.19-.86-.31-.77-.86.05-.36.36-.79.26-1.23.16-.2.23.01.26.18.05.4-.04.88,0,1.29.27-.06.14-.58.17-.78.02-.13.21-.25.21-.27v-3.06l.26-2.51c.09,1.7.23,5.79-.39,7.23Z" fill="#1b3b5e"/>
    <path d="M21.3,20l-.06.49.71-.37c-.37.35-.89,1.12-.06.49l.19.25c-.05.57-.73,1.5-1.29,1.72-.23.17-.44.33-.64.49-.08-.01-.17,0-.26,0-.03-.24.05-.52.26-.83-.3-.23-.35-.3-.26-.64.5-.76.79-.99,1.42-1.59Z" fill="#1b3760"/>
    <path d="M67.98,28.7s.09.1.13.06c.18-.17.12-.63.51-.55l.52.85c-.21.65-.43,1.02-.77,1.59h-1.03s.26-1.1.26-1.1c-.22-.14-.14-.25.13-.25.16-.05.21-.17.13-.37-.33-.2-.25-.35.13-.25Z" fill="#1f3d66"/>
    <path d="M21.17,62.88c.48-.03,1.4.45,1.55.86-.7.03-.49.58-.68.71-.09.06-.32,0-.35.02-.26.22.67.34,0,.37-.65-.24-.76-.31-1.29-.74-.19-.2-.11-.28.13-.37-.41-.29-.08-.52.22-.73l.16-.25c.23-.25.28-.21.26.12Z" fill="#1c3c64"/>
    <path d="M60.24,67.41c.77-.27.81.15.13.49.47-.07.86.01,1.16.25-.21.38-.68.52-1.03.74-.32.01-.52.03-.83.22-.28-.17-.57-.28-.84-.34-.13.05-.39.2-.52.12-.07-.05.12-.21.13-.24l.39-.37c-.04-.4,1.01-1,1.42-.86Z" fill="#1d426e"/>
    <path d="M20.27,52.1c.07.27.32-.21.39-.12.14.18-.29.53-.26.67.04.19.48.16.52.19.02.02-.19.35,0,.48.21.31-.18,1.32-.64,1.23,0-.11,0-.47,0-.54,0-.04-.47-.22-.25-.69-.19-.24-.71.8-.65.98l-.26-.61c.36-.82.46-1,1.16-1.59Z" fill="#1c3c65"/>
    <path d="M34.19,14.98l-.13.49h.39c-.32.47.13.24.13.61.19.34-.92,1.23-1.29,1.1-.47.05-.1-.12-.15-.4-.03-.2-.27-.4-.37-.58.55-.52.81-.76,1.42-1.23Z" fill="#1c3963"/>
    <path d="M55.6,16.2c-.03.3-.38.11-.39.12-.11.2.4.47.26.61-.12.11-.48-.44-.77,0-.37.16-1.28-.61-1.16-.98-.27-.32.27-1.04.72-.61l.31-.12c.41.34.67.62,1.03.98Z" fill="#1d3b64"/>
    <path d="M38.45,12.65l.52.18c-.21.36-.79.14-.64.67l.64-.24v.49c.14.35-.68.66-.9.37-.48.04-.87.21-1.16.49-.03-.05-.12-.09-.13-.12-.12-.09-.25-.13-.39-.12-.14-.05-.3.13-.26-.25.4-.43.94-.75,1.62-.96l.05-.27c.23-.09.41-.16.64-.25Z" fill="#1f4069"/>
    <path d="M27.1,42.3c.32.82.32,1.63,0,2.45,0,.24,0,.49,0,.74,0,.37,0,.74,0,1.1-.08.02-.12-.13-.13-.12-.05-3.39.07-6.78,0-10.17.21.13.13.47.13.67.02,1.78,0,3.56,0,5.33Z" fill="#17365d"/>
    <path d="M61.01,41.56c0,1.59,0,3.19,0,4.78l-.13-1.1c.11-.71-.11-1.49-.11-2.15,0-1.81.09-3.68.11-5.51,0-.21-.08-.54.13-.67-.02,1.55,0,3.11,0,4.66Z" fill="#15355b"/>
    <path d="M19.49,63.13c.23-.31-.27-.82-.22-1.17.06-.42.26.04.31.07.08.05.25-.02.29,0,.37-.29.96,1,.86,1.14-.29.07-.36.26-.21.58,0,.02.12.21-.13.37-.47-.38-.58-.48-.9-.98Z" fill="#1d416a"/>
    <path d="M60.5,68.88c-.63.38-1,.56-1.68.86-.29-.41.27-.64,0-.98.1-.04.22-.2.32-.21.2,0,.39.29.54.31.21.03.43-.45.82.02Z" fill="#1e436b"/>
    <path d="M61.27,66.56c.26.73.33.17.71.12.25-.03.17.25.26.25.16,0,.47-.2.7-.13-.09.11-.16.26-.26.37-.46.3-.85.44-1.42.39-.28-.03-.79-.12-.78-.39-.17-.18-.09-.24.13-.12-.06-.37.28-.65.64-.49Z" fill="#193d5e"/>
    <path d="M19.88,21.59c.17.06.03.46.26.31.37-.25.58-.7.86-1.01.08-.09.09-.36.3-.09-.47.77-1.11,1.42-1.42,2.27-.05,0-.38.29-.26-.06.06-.17.5-.78.38-.92l-.51.24c.15-.28.18-.42.39-.74Z" fill="#1a385b"/>
    <path d="M37.8,12.89c.12.1.42.14.2.37-.23.24-1.49.63-1.87.85.03-.29.32-.41-.13-.37.65-.36,1.11-.58,1.81-.86Z" fill="#21426e"/>
    <path d="M60.5,67.17c.14.22.47-.05.69,0,.09.02.08.25.16.25.29.02.98-.27,1.35-.25-.24.27-.35.38-.64.61-.58.18-1.13.22-1.68.12.22-.35.54-.54-.13-.49-.21-.28-.06-.41.26-.25Z" fill="#1d3c68"/>
    <path d="M54.57,15.22c-.14.54-.36.41-.77.12.11.36-.28.32-.26.61-.3.21-.45.11-.39-.25.29-.25.41-.76.64-1.1.27.19.52.4.77.61Z" fill="#1f406a"/>
    <path d="M18.72,60.06c-.06-1.53-.09-3.38,0-4.9.21.13.13.46.13.67.01,1.24.05,2.49.05,3.72,0,.2,0,.37-.18.5Z" fill="#153559"/>
    <path d="M62.04,67.78c-.21.17-.09.22-.52.37-.72.25-.45-.11-.59-.13-.2-.03-.46.18-.7.13-.03-.02.09-.19.13-.24.5-.26,1.12-.25,1.68-.12Z" fill="#1e4161"/>
    <path d="M57.14,17.06c.07.13.39.08.39.19,0,.3-.14.85-.52.67-.05-.18.18-.54.13-.61-.02-.02-.41-.08-.52-.12.09-.18.35-.12.52-.12Z" fill="#263f66"/>
    <path d="M63.33,66.31c-.13.17-.25.32-.39.49.02-.37-.66.04-.51-.3.17-.39.6-.24.9-.19Z" fill="#214371"/>
    <path d="M68.1,31.03c-.15.22-.24.3-.39.49.17-.49-.56.07-.39-.3.16-.34.48-.24.77-.19Z" fill="#213c6b"/>
    <path d="M48.76,71.82c-.21.22-.71.12-1.03.12.21-.22.71-.12,1.03-.12Z" fill="#1f4268"/>
    <path d="M57.92,16.94c-.09,0-.4.1-.64.12.11-.2.44-.12.64-.12Z" fill="#263f66"/>
    <path d="M19.36,30.17c-.09-.17-.09-.28-.13-.37.2.06.42.29.13.37Z" fill="#1b365d"/>
    <path d="M38.45,29.68c.37-.29,1.39.06,1.55.49.16,0,.29.05.39.12,2.65.85,6.22.63,9.15.04,1.38.76,2.83,1.38,4.34,1.85,0,.14.06.24.18.31.25-.18.63-.13,1.14.16.35.02.57.13.67.33.78-.32.7,1.5.13,1.65.1.01.25.04.26.11.06.6.11,2.86,0,3.39l-.26.18c.39.1.09,1.22-.39.92-.27.08-.99.22-1.03-.12-.59-1.44-.69-3.14-.39-4.66-.14-.23-.23-.57,0-.74-.07-.14-.16-.14-.26,0,.19.12.19.37,0,.49.21,1.59.07,3.27-.52,4.78-.07.23-.19.23-.26,0-.68.23-1.24.19-1.68-.12l-.48-.05c-.17.27-1.24.17-1.32-.2l-.26-.06-.22-2.8-.25,2.63c-.41.15-.9.19-1.46.11-.84.35-2.01.37-2.84,0-.08-.07-.16-.14-.22-.22-.54-.69-.49-3.73-.29-4.68-.21-.11-.18-.46,0-.61-.08-.08-.16-.04-.26.12.2.09.18.48,0,.61.16.91.2,3.9-.3,4.56-.06.08-.14.15-.22.22-.2.05-.41.05-.64,0-.02.11-.07.11-.13,0-.78,0-1.55.04-2.32.12h-.64c-.04.11-.09.11-.13,0l-.27-.05-.39-2.68-.23,2.61-.27.12c-.11.38-1.37.42-1.59.18l-.34.06c-.17.35-.98.34-1.16,0-1.02.42-1.11-.73-.77-1.35-.21-.57-.36-1.16-.44-1.75,0,.48-.12.94-.34,1.38.32.37.28,1.76-.26,1.96-.01.27-1.89.58-1.99.56-.07-.12-.2-.16-.33-.19-.05.33-.12.3-.26,0-.56-.63-.72-1.93-.39-2.7-.09-.19-.13-.4-.13-.61-.28-.12-.27-.37,0-.49l-.13-.74c-.06-.1-.06-.22,0-.37-.09-.19-.17.1-.26.86.27.22.31.93,0,1.1l-.13,1.1c.37.47.23,1.62-.13,2.08-.38.08-.78.16-1.16.25-.14.08-.25.09-.33.02.04-.59.02-1.17-.06-1.74,0-.29,0-.57,0-.86.11-.48.11-.98,0-1.47,0-.37,0-.74,0-1.1.01-.9.06-1.8.13-2.7.22-.09.85-.16,1.16-.25-.06-.33,0-.35.26-.12.52-.63,1.52-.74,2.32-.74.54-.56,1.4-.87,2.19-.74.32-.6,1.38-.75,1.93-.61.25-.63,2-.62,2.32,0Z" fill="#fff"/>
    <path d="M41.28,39.72c.7-.08,1.41-.11,2.12-.08.14-.11.28-.2.43-.2,1.35-.08,5.42-.08,6.46.33.14.05.27.13.4.2.34-.33,1.01-.25,1.29.12.16.21-.18.18-.39.12l-.45.16c-4.88-.04-9.74.17-14.59.62.24.95.25,1.97.05,3.06.1.47.06.86-.1,1.18-.01.06-.1.1-.26.12-1.02.35-2.01.39-2.97.12l-.84.02c-.08-1.34-.11-2.69-.1-4.04l-2.42.46-.12,3.88-.26.17c-.1.37-1.02.49-1.29.25-.04-.52-.09-1.05-.13-1.59,0-.66-.12-2.79.15-3.23.17-.28,1.49-.48,1.91-.57.43-.57,1.3-.52,1.93-.37.41-.37,1.88-.62,2.42-.55.16.25.4.23.67.18.42-.43,1.18-.43,1.68-.12,0-.37.98-.49,1.1-.12.21-.4,1.81-.38,2.06,0,.12-.36,1.05-.49,1.22-.12Z" fill="#fefefe"/>
    <path d="M36.25,45.36c1.66-.25,1.51.56-.12.36-.05.03.22.39.3.48.8.3.07.48-.44.5-.16.03-.33.07-.52.12l-.17.15c-1.75.14-3.5.31-5.24.53l-.39-.19-.64-.06c.32-.43-.03-.25-.3-.43-.11-.07-.4-.49-.48-.49v-.12c.41-.17.85-.18,1.29-.25.57-.42,1.72-.58,2.48-.6.41,0,.83.05,1.26.11.98-.08,1.98-.11,2.97-.12Z" fill="#193c62"/>
    <path d="M29.55,29.43c.54-.06,1.39.3,1.16.86-.06.47-1.2.87-1.55.61l-.17.25c-.06-.24-.28-.24-.48-.13-.38-.02-.78,0-1.16,0l-.64-.12c-.02.11-.07.1-.13,0-.3.29-1.11.09-1.16-.37-.31.24-.52.1-.39-.25.07-.35.79-.67,1.16-.74l.18-.23c.99.06,1.99.03,2.97-.11l.2.21Z" fill="#c2dfee"/>
    <path d="M30.19,34.95l.13.74c.01.16-.02.33,0,.49,0,.22.04.42.13.61.1.9.19,1.81.39,2.7-.06.37-.66.56-.9.25-.08.02-.18-.02-.26,0-.04-.7.09-1.39.13-2.08l.13-1.1c0-.36-.03-.75,0-1.1,0-.36.09-.65.26-.86,0,.12,0,.25,0,.37Z" fill="#6fcae7"/>
    <path d="M31.1,39.48c.46.02.8.34,1.03.98-.62.09-1.32.24-1.93.37.51-.62-1.56-.59-.18-.96l-.08-.14c.25-.05.63-.2.9-.25.08-.01.18.01.26,0Z" fill="#1c406a"/>
    <path d="M27.1,42.3l.52-.06c-.07.53.27,1.25.25,1.71,0,.04-.15.77-.18.8-.18.22-.4.11-.59,0,0-.82,0-1.64,0-2.45Z" fill="#1c3e66"/>
    <path d="M26.97,34.09c-.29.09-1.39-.41-1.81-.37v-.12c.06-.28.34-.43.86-.46.24-.5.51-.96.82-1.37.04-.1.09-.1.13,0,.09.7.13,1.6,0,2.33Z" fill="#b6d6e9"/>
    <path d="M29.16,30.9c.38-.12.52-.06.42.19.56.09.6.44.1.67-.09.02-.17.1-.26.12h-1.16c.25-.3-.09-.22-.12-.33-.18-.59.29-.39.77-.41.03-.21-.24-.11-.39-.12.11-.22.47-.08.64-.12Z" fill="#1f3d63"/>
    <path d="M26.71,30.9c.12.02.2.06.26.12.23.1.36.18.65.12.13.61-.3.24-.5.39-.06.05,0,.2-.02.22-.03.11-.07.11-.13,0-.04,0-.09,0-.13,0-.16.38-1.03,0-.9-.37-.01-.29.41-.49.64-.49.04,0,.09,0,.13,0Z" fill="#1f3d63"/>
    <path d="M28.13,34.82c0-.68-.12-1.94,0-2.52.03-.12.01-.12.13-.18-.08.87.17,1.87-.13,2.7Z" fill="#2a4467"/>
    <path d="M26.97,34.09v-2.33s.12.01.13,0c-.06.65.08,1.4,0,2.03-.02.14.06.24-.13.3Z" fill="#2a4467"/>
    <path d="M28.13,38.25c.32.26,0,1.55.13,1.72.02.02.19-.01.26,0-.07.02-.18.21-.39.12,0-.61,0-1.23,0-1.84Z" fill="#2a4467"/>
    <path d="M28.26,46.22l-.13-.06c0-.51,0-1.02,0-1.53.29.41.06,1.09.13,1.59Z" fill="#1c3e66"/>
    <path d="M28.13,37.4c0-.49,0-.98,0-1.47.21.33.22,1.12,0,1.47Z" fill="#2a4467"/>
    <path d="M27.36,31.03h-.39c-.08-.03-.2-.02-.26-.12.19.03.53-.09.64.12Z" fill="#28476f"/>
    <path d="M27.94,31.64c.19,0,.19.36,0,.36s-.19-.36,0-.36Z" fill="#1f3d63"/>
    <path d="M35.48,46.83c.23-.1.87-.15.77.12l-.35.31c-4.23.63-8.33,2.29-9.23,6.69l-.35.35c.11.15.09.38-.06.69.17.47-.08,1.09-.33,1.51.26.03.25.15,0,.25.37.3.38.94,0,1.23.18,1.66.31,3.26.39,4.9l.32.25c.3,1.45.86,2.86,1.86,4.01v.4c.32,0,.59.2.39.49-.45-.22-1.18-.57-1.55-.86-.8-.63-1.65-1.8-2.06-2.7-.1-.22-.33-.66-.39-.86-.78-1.2-.74-2.8-.64-4.17.06-1.3-.08-2.63,0-3.92-.09-.71-.1-1.54.17-2.29l.22-.28c.05-.26.07-.63.13-.86.24-.88.76-1.94,1.29-2.7.25-.36.79-1.05,1.16-1.35.64-.51,1.63-.61,2.45-.74,1.7-.26,4.1-.51,5.8-.49Z" fill="#fefefe"/>
    <path d="M20.27,60.31c-.08-.93-.05-1.85.1-2.76l.81-.98c-.42-1.49.69-1.61.76-.11-.08.4-.16.91.37.93-.09-.61.05-1.03.41-1.25-.08,1.76.05,3.52.13,5.27.35.02.4.29.13.49-.89.56-2.58-.5-2.71-1.47,0-.04,0-.08,0-.12Z" fill="#69c6e1"/>
    <path d="M22.72,56.14c-.3,1.04-.05,2.23-.13,3.31-.26.01-.07-.36-.13-.53-.03-.12-.25-.07-.26-.08-.04-.05.25-.25.26-.43.03-.27-.38-.57-.27-.91l-.51.37c.15-.54-.19-.87,0-1.4l-.2-.92c-.41.29.07.73-.08,1.14-.03.08-.92,1.05-.99,1.27s-.14,2.01-.15,2.36c-.19-1.55-.17-3.16-.14-4.73,0-.22.14-.39.14-.41.21-.09.42-.28.64-.54.45-.38,1.55-1.1,2.07-.8-.1.77-.22,1.55-.26,2.33Z" fill="#6bc9e1"/>
    <path d="M24.26,59.45c.28,1.35.22,2.78.64,4.17l-.16.09c-.01-.14-.33-.93-.48-.83l-.13.73-.51-.49c0,.27.06.42-.13.61-.53-.22-.85-1.27-.52-1.72-.11-.04-.11-.08,0-.12-.03-.15-.14-.25-.13-.49,0-.07.22-.54.19-.74l.07.74h.39c-.15-.44-.18-.79,0-1.22.3.14-.07.79.51.73.02-.71.11-1.37,0-2.08.12,0,.24.52.26.61Z" fill="#1b3a5e"/>
    <path d="M23.23,52.22c.03.11-.22,1.28-.26,1.59-1,.38-2.12.86-2.58,1.84l-.13-.49c0-.2,0-.41,0-.61.28-.32.38-.92.64-1.23.44-.51,1.63-.99,2.32-1.1Z" fill="#f9fafb"/>
    <path d="M24.26,55.53c-.59-.24.05-.59,0-.91,0-.06-.25-.06-.27-.14-.05-.27.12-1.55.65-1.51-.16.8-.34,1.77-.39,2.57Z" fill="#203e5e"/>
    <path d="M22.97,61.9s0,.08,0,.12c.01.58-1.3,1.05-1.81.86-.06-.05-.18-.07-.26-.12-.65-.16-.75-.98-.64-1.47-.04-.23,0-.61,0-.86.64.83,1.58,1.49,2.71,1.47Z" fill="#46abd7"/>
    <path d="M20.91,62.76c.28.81-.08.32-.33.6-.1.12-.03.27-.05.38-.32.07-1.12-1.27-.58-.98.22.12.18.47.2.49.08.07.36-.09.39-.19.01-.06-.59-1.01-.64-1.04v-.61s.39.24.39.24v-.37c.09.53.47.98.65,1.47Z" fill="#1c426f"/>
    <path d="M32.9,68.39l.51-.08c3.38.43,6.79.71,10.21.78l.5.15c.18-.36,1.07-.48,1.29-.12.05-.26.31-.26.77,0,.13-.36.83-.47,1.03-.12.07-.24.19-.23.26,0,.15-.31.24-.31.39,0,.78.19-.12.81-.51,1.06.58-.01.84.12.77.41-.13,0-.26,0-.39,0-.68.04-1.37.08-2.06.12-2.02,0-4.05.05-6.06-.12-.93-.03-1.9-.29-2.84-.25-.71-.19-1.47-.24-2.19-.37-.89-.16-1.58-.36-2.45-.61-.12-.54-.03-.82.26-.86.12-.33.4-.35.52,0Z" fill="#41afd6"/>
    <path d="M47.73,70.48c-.09.18-.35.12-.52.12-.51,0-1.03,0-1.55,0,.58-.24,1.4-.11,2.06-.12Z" fill="#41aed4"/>
    <path d="M60.5,63.74c.18-.39.35-.2.55.08.77.07.84.75.25,1.12.22.27.39.56.49.88-.15.2-.19.28-.39.49-.44.12-.7.36-.77.74-.05.04-.08.09-.13.12-.11.08-.2.21-.26.25-.34.24-1.05.68-1.42.86-.09.22-.28.3-.52.25-1.45.63-3.23.96-4.77,1.35-.55-.01-1.49.26-2.06.37-1.07-.03-2.24.2-3.35.25-.15-.25-.97.01-1.03-.31-.1-.52,1.08-.55.77-1.16l.29-.28c2.64-.32,5.36-.77,7.81-1.8,1.99-.83,2.77-1.52,4.16-3.03.1-.1.23-.15.38-.16Z" fill="#41a4d4"/>
    <path d="M61.14,62.27c.26-.04.54.06.83.32.9.25,1.23.59.98,1.03.53.31-.36,2.01-.9,1.96-.03.04-.17.13-.26.25-.26.06-.28-.14-.4-.29-.98-1.36-.17-.75,0-.93.11-.7-.17-.4-.49-.57-.18-.1-.14-.34-.42-.28-.07-.05-.12-.09-.11-.13.03-.17.58-1.27.76-1.34Z" fill="#44b0d5"/>
    <path d="M63.72,60.06c.28.05.56.09.86.1l.18.37c.43-.11.4.35.26.63.03.29.09.54.18.75l-.18.11c.34.31.08,1.41-.39,1.47-.07.18-.12.45-.39.37v-.61s-.52.25-.52.25l-.06-.37c-.17.23-.27.42-.58.49-.18-.74-.13-1.59.39-2.21v-.12c.1-.23.14-.48.13-.74-.22-.17-.19-.49.13-.49Z" fill="#1b3d63"/>
    <path d="M67.72,61.41c-.22.18-.15.52-.26.74.31.22-.04.74-.39.61-.11.15-.42.18-.52.25-.49.26-1.49-.53-1.55-.98.03-.24.01-.6,0-.86.04-.11.08-.11.13,0,.24.48.7.48,1.36,0,.4-.38.81-.62,1.22-.73.3.14.23.79,0,.98Z" fill="#45b1d8"/>
    <path d="M65.01,62.02l.89.57c.14.35.4.18.66.41-.68.48-.74.61-1.67.81-.41.09-.25-.01-.27-.32.12-.3.35-1.16.39-1.47Z" fill="#3ca9d2"/>
    <path d="M63.08,63.62h.39c.01.3.03.56-.07.85-.04.11-1.25,1.96-1.34,2.03-.62.48.42-.77,0-.92.36-.53.87-1.33.9-1.96.04-.11.08-.11.13,0Z" fill="#1a426c"/>
    <path d="M67.46,62.15l.39.06c.06.43-.66,1.44-1.16,1.23.29-.17.28-.46.39-.67.13-.25.32-.47.39-.61Z" fill="#1c416c"/>
    <path d="M67.85,61.78c-.2-.02-.12-.2-.13-.37-.03-.3-.01-.67,0-.98-.39-.15-.25-.75.13-.86.39.72.29,1.48,0,2.21Z" fill="#1b3b5e"/>
    <path d="M61.4,66.31c-.06.06-.08.19-.13.25-.15.16-.46.34-.64.49-.34-.57.14-.9.77-.74Z" fill="#39a6d2"/>
    <path d="M67.33,63.74l.65-1,.38-.22c.13.14-.81,1.44-1.03,1.22Z" fill="#1d406e"/>
    <path d="M57.53,31.64c.64.02,1.59.26,1.93.74v.12c-.08.39-.44.61-1.07.66.02.42-.01.85-.08,1.27l-.26.15c-.07.23-.12.27-.13.12.08.99-.04,1.93-.38,2.82.26.42.19,1.69-.26,1.96-.29.33-1.44.23-1.68-.12-.11-.03-.11-.08,0-.12l.26-.08c-.13-.28.12-.7.12-.84v-3.68c0-.39.46-1.37-.13-1.65,0-.29.24-.56.72-.82,0-.4.19-.61.57-.65.23-.28.38-.23.39.12Z" fill="#bddded"/>
    <path d="M59.47,32.5c.16,0,.21-.04.26.12-.16.44-.35,1.49,0,.61.22.4.15,1.1.13,1.59.08,1.62.15,3.28,0,4.9.25.04.23.13,0,.25-.15.45-1.37.18-1.42-.25l-.31-.15c-.13-.21-.26-1.99.05-2.18-.38-.88-.41-1.89-.13-2.82,0-.42.07-.68.12-1.06.03-.23-.21-.51.33-.68.22-.07.54,0,.57,0,.1-.07.02-.33.41-.34Z" fill="#bfddeb"/>
    <path d="M62.95,29.56c.15.08.2.25.16.49.58.3,1.06.75,1.44,1.35.43.13.63.45.59.98-.49.37-1.07.81-1.68.98-.57.33-1.07-.51-1.03-.98.13-.03.59-.19.77-.25.05-.11-.04-.16-.28-.16l-1.14.03c-.13-.01-.47-.09-.64-.12l-.26-.14c.15-.28.06-.6-.26-.96-.09-.28.09-.36.52-.25.19-.54,1.12-.95,1.68-1.1.18-.16.25-.09.13.12Z" fill="#c5dfee"/>
    <path d="M60.37,30.17c.37-.07.84-.1.77.37-.18.08-.3.16-.52.25.04.24-.16.37-.57.41.36.13.6.32.7.57-.47.2-.98.11-1.29.61-.71-.06-1.3-.51-1.93-.74.04-.26.28-.38.74-.38.1-.7.54-.86,1.19-.97.09-.38.69-.44.9-.12Z" fill="#1c3b60"/>
    <path d="M62.43,32.37c.47.27.42.92,1.03.98v.12c-.22-.05-2.01.73-2.45.74v-1.72c.45,0,.99-.03,1.42-.12Z" fill="#bad8ea"/>
    <path d="M60.63,30.78l.65.12c-.25.33.08.49.13.68.02.07-.37.05-.26.3-.15-.03-.26-.08-.39-.12-.44-.13-.9-.28-1.29-.55,0-.18.97-.36,1.16-.43Z" fill="#b8d6ea"/>
    <path d="M59.98,35.93c0,1.14.04,2.3,0,3.43.39.07.28.55-.13.37.05-1.64-.06-3.22,0-4.9.23.24.13.76.13,1.1Z" fill="#163359"/>
    <path d="M59.72,33.23c.02.62.03,1.28,0,1.9,0,.15.1.46-.13.43.26-1.06-.75-2.1.13-2.94.04.13,0,.44,0,.61Z" fill="#cfebf6"/>
    <path d="M61.79,32.01l1.8-.12c.03.15-.26.2-.39.24-.35-.26-.97-.08-1.42-.12Z" fill="#536e91"/>
    <path d="M65.14,53.94c.74-.48,1.86.51,2.41,1.05l.17-.07h.13c-.04.24.01.59,0,.86.12.93.12,1.87,0,2.82,0,.33.01.65,0,.98,0,.24-.12.53-.13.86-.65.79-1.53,1.31-2.58,1.47,0-.24,0-.49,0-.73-.17-.35-.22-.71-.15-1.08l.27-.21c-.1,0-.25-.02-.26-.08-.03-.54-.14-4.26,0-4.43l.26-.14-.27-.11c-.13-.4-.08-.79.14-1.18Z" fill="#6ec8e0"/>
    <path d="M67.85,58.59c.02-.94-.04-1.88,0-2.82l.27.55-.27,2.27Z" fill="#1b3b5e"/>
    <path d="M59.85,45.85c-.14.19.22.24-.52.25l-.22.24c-1.35-.26-2.71-.42-4.07-.48l-.22-.25c-.11-.03-.11-.08,0-.12l.15-.26c.69-.03,1.4-.22,1.51-.97l.28-.13c.7-.1.98-.5.85-1.19.94-1.14,1.5-1.25,1.7-.33.12.22.25-1.06.15-1.15l.27-.14c.03-.1.08-.1.13,0,.11,1.52-.21,3.04,0,4.53Z" fill="#39a8d0"/>
    <path d="M59.98,39.36c.86-.07.35.11.42.41.11.42.63,1.7.09,1.98s-.33-.21-.65-.43c-.03-.02-.09.02-.13,0-.21.26-.3.2-.26-.12,0-.38.04-.77.11-1.17l.27-.06c0-.08,0-.16,0-.25.17-.06.12-.23.13-.37Z" fill="#1d3f65"/>
    <path d="M32.39,68.39c-.18.34.23.68-.26.86-.78-.23-2.33-.61-2.97-.98-.06-.03-.18-.18-.26-.25-.13-.12-.26-.35-.39-.49-.05-.11-.08-.28.01-.31.17-.06,3.09.7,3.51.85l.35.32Z" fill="#3eabd4"/>
    <path d="M58.82,68.27c.01.25-.13.38-.39.37.02-.06-.05-.14-.13-.12.13-.06.38-.18.52-.25Z" fill="#1e436b"/>
    <path d="M45.8,13.02c.84.06,2.41.37,3.22.61.45.14,1.35.53,1.81.74.79.36,1.61.86,2.32,1.35.13.09.29.17.39.25.35.26.84.68,1.16.98.39.37.81.82,1.16,1.23.43.12.85.67,1.13,1.08-.18-.32-.17-.56.03-.71-.04-.49,0-.34.39-.37,1.03-.07,2.61-.06,3.61.12.81.15,2.25.7,2.97,1.1.6.34,1.73,1.22,2.19,1.72.41.44,1.18,1.56,1.42,2.08.23.49.52,1.44.52,1.96.59.91-1.89,3.53-2.54,3.66l-.3-.11c-.23.63-1.69,1.12-2.32.86,0-.01-.11-.07-.13-.12-.06-.11,0-.14.13-.12l-.17-.21.54-.91c-.62.49-1.26.7-1.92.64-.2.57-1.16.51-1.68.37-.09.11-.2.24-.36.28-1.49.34-5.86-.55-6.95-1.58-.11-.11-.15-.27-.17-.41l-.1-.26,1.26-1.33c-.19-.26-.13-.65.19-1.16-.98.75-4.34,2.9-5.44,2.72-.1-.02-.2-.05-.29-.09-.38.53-3.05.98-3.51.76-.08-.04-.16-.09-.23-.15-.67.07-1.34.08-2.02.05-.1.1-.2.17-.3.18-.93.03-2.4-.18-3.1-.72-.46.29-1.48,0-1.68-.49l-.43.09c-1.19-.5-2.28-1.19-3.31-1.93.25.24.29.45.14.62.57.44.83.89.77,1.35-.14.46-.53.82-1.18,1.11-.95.59-2.35,1.44-3.46,1.22-.82.16-2.52.22-3.35.12l-.35.18c-.89-.23-1.73-.54-2.52-1.01.33.39.47.74.42,1.07.35.16.48.32.39.49.09.1.11.24,0,.3-.08.04-1.66-.33-1.41-.66-.59.24-1.61-.7-2.03-1.16-.53-.56-.8-1.03-.93-1.78-.04-.7-.02-1.65.13-2.33.06-.29.38-1.18.52-1.47-.24-.21.12-.52.39-.61.35-.6.79-1.22,1.29-1.72.53-.53,1.9-1.52,2.58-1.84.38-.18,1.38-.5,1.81-.61.77-.2,1.55-.2,2.32-.37.39,0,.77,0,1.16,0,.43.39,1.6-.26,1.42.49-.09.66.06.67.43.02l.35-.02c.33-.37.86-1.06,1.16-1.35.2-.19,1.06-.93,1.29-1.1.52-.4,1.47-.74,1.93-1.23.08-.13.26-.22.54-.26.07-.51.64-.52,1.01-.47.23-.09.72-.31.9-.37.85-.27,2.6-.66,3.48-.74s2.43-.07,3.35,0Z" fill="#fff"/>
    <path d="M23.49,63.74c-.17.18-.53.07-.77,0-.55-.15-1.13-.52-1.55-.86l1.4-.57.4-.29c.11.57.3,1.17.52,1.72Z" fill="#3fa4d5"/>
    <path d="M60.63,48.06c.44.33.98.91,1.29,1.35.72,1,1.29,2.49,1.55,3.68.14.65.12,1.42.26,2.08.35.07.37.68,0,.74-.28,1.83-.29,3.67-.26,5.51-.11.74-.22,1.47-.39,2.21h-.13c0-.1.04-.28-.02-.35-.62-.28-1.34-.47-1.78-1-.06-.66,0-1.59.18-2.29.05-.21.18-.59.33-.65l-.22-.4c.36-3.43.36-7.25-2.04-10.06l-.07-.45c-.64-.2-.73-.4-.9-.98.91,0,1.48.08,2.19.61Z" fill="#41a4d4"/>
    <path d="M22.72,29.92c.22.19.08.41-.41.68,0,.4-.21.7-.63.67-.15-.16-.32-.23-.52-.49-.32-.43-.55-1.12-.9-1.47-.29-.73-.47-1.55-.52-2.33.45,1.18,1.78,2.38,2.97,2.94Z" fill="#cce0ed"/>
    <path d="M58.3,47.32s.09.08.13.12c.21.26.67.73.9.98q-.36.1,0,0c2.78,2.92,2.74,7.11,2.32,10.9-.47.83-.64,1.57-.53,2.49-.32,1.42-.91,2.24-2.25,2.88-.28,1.06-1.1.1-1.2-.48l1.19-1.27c-.24-.18-.28-.44-.11-.77-.19-.01-.32-.08-.33-.28-.03-.48.67-1.3,1.16-1.47-.3-.22-.06-.52.26-.49-.06-.2.03-.36.26-.49l-.18-.32c.06-.72.12-1.43.18-2.13l-.33-.22c-.33-1.01-1.01-1.84-1.97-2.37l-.15-.35-.37.1c-1.31-.55-2.85-.63-4.16-.02l-.38-.09c-.63.27-.97-1.13-.2-1.24.23-.83.74-.44,1.06.08.03-.3.22-.42.53-.41-.17-.3-.03-.48.18-.72-.14-.82.33-.85,1.4-.1.54-.62,1.12-1.22,1.75-1.79l.33-.05.64-.98c-.61-.12-.73-.58-.36-1.04-.19-.14-.32-.24-.18-.48.12-.33.26-.33.39,0Z" fill="#6ac8e3"/>
    <path d="M59.34,46.1c.12.73-.6.66-.77.86-.24.27.32.18.26.36-.17,0-.34,0-.52,0-.13,0-.26,0-.39,0-.31.24-.67.22-1.05.15-1.04-.05-2.44-.22-3.34-.64-.12-.32.13-.45.74-.37-.04-.63.15-.92.55-.86.36.01.73-.03,1.1,0,1.05.08,2.46.49,3.42.49Z" fill="#1c3c61"/>
    <path d="M63.72,55.16c.01-.08.24-.82.28-.84.24-.14.55.22.56-.38l.45.49c0-.16,0-.33,0-.49.04-.11.08-.11.13,0-.14.4.13,1.02.13,1.29v4.66c0,.31-.14.81-.13,1.29h-.13c0-.14.1-.51-.13-.49-.02.31.11.94-.26,1.1-.22-.31.13-.56.1-.77-.03-.15-.34-.41-.23-.7-.51.1-.58.3-.77-.24-.1-.14-.21-.3-.23-.47-.09-1.04.05-2.4.16-3.46,0-.08.03-.15.07-.23,0-.23-.03-.52,0-.74Z" fill="#204267"/>
    <path d="M66.56,52.83c.58.38,1.12,1.4,1.16,2.08,0,.17.05.49-.06.61-.57-.82-1.47-1.45-2.52-1.59h-.13c0-.64-.13-1.1-.26-1.72.48.2,1.4.34,1.81.61Z" fill="#f8fafa"/>
    <path d="M67.98,28.7c-.19.11-.09.16-.13.25.09.13.06.33-.13.37-.05.08-.08.17-.13.25-.19.32-.42.67-.64.98-.6.06-1.06-.54-.9-1.12-.45-.03-1.16-.26-.78-.71.56-.33,1.24-.93,1.67-1.41.53-.59,1.16-1.36,1.16-2.14h.13c.04,1.21,0,2.38-.26,3.55Z" fill="#c1ddee"/>
    <path d="M20.78,22.57c-.1.18-.33.48-.39.61-.1.01-.21-.11-.26-.12.02-.35.29-.52.64-.49Z" fill="#1a385b"/>
    <path d="M65.27,28.7c.15.56.99.45,1.03.49.05.04-.05.6,0,.77.02.07.58.36.65.58-.37.5-.95,1.19-1.42,1.59-.11.09-.27.16-.39.25-.54-.25-.21-.55-.26-.61-.01-.02-.32-.03-.43-.12-.34-.27-.68-.87-.9-1.08-.06-.06-.65-.29-.71-.43-.11-.3.09-.43.09-.58.79-.21,1.61-.45,2.32-.86Z" fill="#bddaed"/>
    <path d="M31.35,18.53c.1-.17.19-.43.39-.49-.08.38.1.35.39.49-.47.53-.84,1.16-1.42,1.59.13-.56.34-1.1.64-1.59Z" fill="#213c65"/>
    <path d="M36.38,14.36l.07-.12c.47-.06.26.06.32.24-.18.05-.28-.08-.39-.12Z" fill="#224470"/>
    <path d="M36.9,14.61s.11.02.13-.06c.04-.16-.19-.51-.13-.55.04-.03.29.03.42,0,.1-.03.14-.4.48-.24.08.04-.43.5.26.37-.53.22-1,.58-1.55.74.02-.02-.04-.18.01-.23.08-.07.29.01.37-.01Z" fill="#224470"/>
    <path d="M24.13,30.29c.41-.08,1.06.33,1.03.74.26-.26.79.02.77.37.28.12.59.31.9.37.04.26.01.38-.09.61-.04.09-.53.93-.58.96-.04.03-.95.27-1,.27-.33,0-1.47-.65-1.81-.86-.72-.45-1.12-.86-1.68-1.47,0-.19.35-.37.36-.4.05-.11-.1-.24-.08-.32.01-.05.68-.47.75-.63.37.17.98.24,1.36.48l.06-.11Z" fill="#c3dded"/>
    <path d="M55.85,18.16c.28-.58.48.36.77.37l.26-.37c-.04.16.07.25.13.37.09.19.68,1.91.13,1.47-.33-.61-.84-1.32-1.29-1.84Z" fill="#1f3a61"/>
    <path d="M67.72,29.31c.04-.08.07-.25.13-.37l.12.07c.06.2-.02.3-.19.42l-.06-.12Z" fill="#1a3960"/>
    <path d="M49.92,29.43c.36-.15.48-.11.39.12.88-.15,2.19.38,2.84.98.51-.11,1.39.04,1.68.49.11.03.11.08,0,.12.46.22.16.66-.3.71-.11.24-.27.45-.48.64-.65-.19-1.23-.32-1.89-.59-.49-.2-2.48-1.31-2.7-1.34-.27-.03-1.15.27-1.55.32-2.2.27-5.02.38-7.14-.29-.21-.07-.46.02-.38-.3.04-.1.19-.09.26,0,.09-.09.18-.09.26,0l.77.12c1.02-.37,2.55-.38,3.61-.12.5-.23,1.04-.41,1.61-.54l1.52-.44c.12.17.28.19.47.12,0-.47.95-.47,1.03,0Z" fill="#beddec"/>
    <path d="M43.35,38.5c.38-.36.91-.35,1.29,0,.94,0,1.9-.03,2.84,0l1.17.02c.25-.32.79-.22,1.02.11.53.03,1.33.13,1.81.25-.03.23-.19.26-.47.06.98.04.17.73-.3,1.04-3.04-.29-6.35-.33-9.41-.25-.1-.35.03-.41.26-.12.42-.28.72-.28,1.26-.25-.23-.6-.05-.85.54-.73.04,0-.89.2-.64-.12.21,0,.43,0,.64,0Z" fill="#1b3e64"/>
    <path d="M38.32,38.62c.28-.37.89-.37,1.16,0,.04,0,.09,0,.13,0l1.57.12c.81.54.93.83.36.86-.07.04-.2.02-.26.12-.41.01-.97.12-1.22.12h-2.06c-.17,0-.79.1-1.1.12-.61.04-1.11-.98-.41-1.05l-.1-.06c0-.1.1-.11.19-.12.47-.05,1.28-.11,1.74-.13Z" fill="#1a3d64"/>
    <path d="M36.51,27.72c.38-.21,1.58.33,1.68.74.3-.26.49-.12.52.25.06.16.02.34-.12.56.37.16.28.46-.14.42-1.05-.25-1.26-.28-2.32,0-.39.1-.68.14-.72-.31-.38.12-1.04.19-.83-.31l.07-.28c.61-.1.89-.33.84-.7-.38-.39.07-.67.52-.49.18-.26.49-.2.52.12Z" fill="#1d3d61"/>
    <path d="M56.11,31.27c.64-.14.99-.06,1.03.25.33.41-.15.16-.24.26-.07.08.01.35-.14.55-.05.07-.82.65-.91.67-.63.07-1.25-.33-1.81-.49-.34-.42.11-.29.18-.6.02-.1-.07-.25-.06-.26.24-.12.65.2.65-.49.61-.19,1.04-.15,1.29.12Z" fill="#c5e0ee"/>
    <path d="M33.42,39.11c.03-.09.07-.09.13,0,.99-.12,1.29.15,1.68.98-.98.1-2.1.22-3.09.37-.64.13-.15-.52-.77-.37.21-.34.01-.42-.26-.61.68-.11,1.67-.37,2.32-.37Z" fill="#1c3e65"/>
    <path d="M54.18,34.46c.08,1.55.21,3.11.39,4.66-.14.35-1.02.22-1.16-.12.18-1.59.37-3.18.52-4.78.09-.19.18-.1.26.25Z" fill="#63c8e5"/>
    <path d="M44.64,38.5c-.43,0-.86,0-1.29,0,.33-1.57.37-3.19.52-4.78.06-.27.14-.31.26-.12.08,1.63.16,3.31.52,4.9Z" fill="#68c7e4"/>
    <path d="M41.28,29.19c.11.03.11.08,0,.12-.3.12-.25.14.16.06,1.39.83-.07.84-.94.8-.15.07-.33.07-.52,0-.51-.11-1.07-.37-1.55-.49l.26-.19c-.57.05-.4-.59,0-.79.4-.14.87-.1,1.4.11.51,0,.9.13,1.18.38Z" fill="#24446a"/>
    <path d="M49.67,38.62c-.72-.03-1.52-.1-2.19-.12.21-.03,1.11.05,1.16,0,.15-.14.32-3.48.39-3.98l.26-.92.39,5.02Z" fill="#64c6e3"/>
    <path d="M39.48,38.62c-.38-.02-.78,0-1.16,0l.45-5.02.71,5.02Z" fill="#60c6e5"/>
    <path d="M33.16,29.56c.97.13,1.31.37,1.03.74-.73.23-1.46.5-2.19.74-.67.26-1.13-.12-1.03-.74.61-.56,1.35-.81,2.19-.74Z" fill="#1e3e64"/>
    <path d="M36.38,38.87c.14,0,.42-.08.39.12-.78-.17-.15.79.13.98-.55.04-1.13.07-1.68.12-.86.11-.33-.23-.42-.35-.01-.02-.14-.02-.17-.07-.09-.12-.1-.33-.18-.39-.04-.03-.85-.18-.91-.18.02-.41.95-.48,1.1-.18l.58-.07c.36-.03.8-.02,1.16,0Z" fill="#1c3c5f"/>
    <path d="M53.4,38.99c.29,0,.84.08,1.16.12s.66.22,1.03.12v.12l-.21.24c-.54-.03-.66.1-.66.6-.44,0-.88.02-1.33.02-.24.06-.7.1-.77-.12-.67-.08-1.19-.22-.32-.7.07-.35.34-.49.83-.41.08,0,.18,0,.26,0Z" fill="#1b4066"/>
    <path d="M30.97,30.29c.47.28.25.87,1.03.74-.82.26-1.48.49-2.32.74.37-.61-.25-.36-.39-.43-.34-.14.48-.48-.13-.43.43-.11,1.1-.47,1.55-.61.07-.32.17-.31.26,0Z" fill="#22436b"/>
    <path d="M34.58,29.07c.21.35.99-.03,1.03,0,.12.09-.05.8.52.61-.58.15-1.34.42-1.93.61.05-.41-.79-.34-1.03-.49v-.24c.34-.47.84-.65,1.42-.49Z" fill="#21446c"/>
    <path d="M51.47,38.87c.57-.02,1.12,0,1.68.12-.63.08-.44.32-.64.56-.14.18-.61.14-.33.42h.97s-.52.12-.52.12c-.13.2-.52.19-.64,0-.43-.02-.86-.08-1.29-.12l-.39-.24c.34-.02.92-.34.91-.67,0-.13-.32.02-.27-.19.17,0,.34,0,.52,0Z" fill="#1b3c5f"/>
    <path d="M42.7,38.5l.64.12-.51.18c.28.1.21.6.28.66.09.09.41-.1.37.14h-1.93c.1-.05.29-.12.26-.24-.47.09-.64-.44-.9-.55-.11-.05-1.1-.17-1.29-.19h.64c.77-.09,1.54-.13,2.32-.12.04,0,.09,0,.13,0Z" fill="#193b60"/>
    <path d="M33.68,37.15c.24-1.37.7-.45.77.37.11.47.18.86.13,1.35h.65s-.1.1-.2.11c-.49.04-.99,0-1.47.13-.04,0-.09,0-.13,0,.22-.62.1-1.31.26-1.96Z" fill="#5ec5e5"/>
    <path d="M34.45,37.52c-.04-.15-.24-.35-.13-.61l-.39-.24c-.13-.03-.24.41-.26.49l.13-2.51.26-.92.39,3.8Z" fill="#77cbe6"/>
    <path d="M42.57,38.5c-.73.02-1.54.12-2.32.12.69-.28,1.58-.05,2.32-.12Z" fill="#1b3e64"/>
    <path d="M30.19,34.58c-.09.16-.24.71-.26.86l.13-1.47c.23,0,.12.46.13.61Z" fill="#7dcae3"/>
    <path d="M54.18,33.72c0,.24-.01.49,0,.74l-.26-.25c.01-.16-.01-.33,0-.49.04-.33.16-.31.26,0Z" fill="#b1dce9"/>
    <path d="M44.12,33.6l-.26.12c.02-.2-.02-.41,0-.61.08-.24.16-.28.26-.12.01.2-.01.41,0,.61Z" fill="#98d3e6"/>
    <path d="M54.18,33.72h-.26c.02-.24-.06-.53.26-.61,0,.2,0,.41,0,.61Z" fill="#d3ebf1"/>
    <path d="M29.81,37.64c.02-.35-.12-.85.13-1.1,0,.35.11.86-.13,1.1Z" fill="#7dcae3"/>
    <path d="M44.12,32.99l-.26.12c.02-.2-.01-.36.19-.49.13.03.06.26.06.37Z" fill="#deeef4"/>
    <path d="M30.32,35.68c-.22-.13-.13-.5-.13-.74.23.14.11.5.13.74Z" fill="#7dcae3"/>
    <path d="M40.51,30.17h.13c.11.03.11.08,0,.12-.08,0-.18.01-.26,0-.22-.03-.3-.1-.39-.12.17,0,.34,0,.52,0Z" fill="#bedbe9"/>
    <path d="M30.45,36.78c-.21-.1-.12-.42-.13-.61,0,.08.1.37.13.61Z" fill="#7dcae3"/>
    <path d="M51.6,40.21c.59-.04,1.15,0,1.68.12.3.04.6.04.9,0,.54-.28,1.83-.12,2.32.25.13,0,.17.04.13.12l.29.23c.12.98.19,1.97.12,2.96l-.28.24c-.13,1.1-.89,1.28-1.93,1.35-.2.25-.5.33-.89.23l-2.14-.23-.26-.25c-.01.09-.04.22-.11.25-.11.03-1.86.03-2.02,0l-.18-.25c-.39.4-1.84.24-2.26-.12-2.02.06-4.04.06-6.06,0l-.5.24c-1.32.09-2.62.05-3.88-.12-.37-1.03,0-2.22,0-3.25,0-.39-.27-.78-.08-1.17,4.97-.74,10.1-.6,15.16-.6Z" fill="#65cae3"/>
    <path d="M29.55,45.97l.14-4.28c.92-.06,1.88-.39,2.78-.49.26-.03.16,0,.18.17.17,1.22-.2,2.85,0,4.04.03.15.49.04.65.07-1.2.1-2.51.32-3.74.49Z" fill="#69c8e3"/>
    <path d="M40.9,45.12c1.85,0,3.7.03,5.54.12l.13.1c.75.42.56.76-.15,1.01-.8-.08-1.53-.05-2.17.11-.36.12-.74.23-1.12.25-1.65.08-3.33.14-4.98.18-.38,0-.75-.09-1.12-.18-.3.14-.74.18-1.03,0l.77-.24c-.63.14-.6-.33-.89-.56-.21-.17-.51-.09-.53-.29.66-.22,1.37-.1,2.06-.13l-1.16-.12c.03-.12.15-.11.26-.12,1.39-.1,2.99-.13,4.38-.12Z" fill="#1b3e65"/>
    <path d="M52.63,40.09c.12,0,.53.1.77.12.19.12.15.16-.13.12-.55-.03-1.2.13-1.68-.12.16.06.33-.11.39-.12.17-.03.46,0,.64,0Z" fill="#d2dde4"/>
    <path d="M36,46.71c.34,0,.69.02,1.03,0,.93.14-.49.75-.77.25-.14-.21-.53-.12-.77-.12.09-.18.35-.12.52-.12Z" fill="#e0eff2"/>
    <path d="M35.48,28.09c.09.07.47.52.39.61-.46.02-.87.23-1.29.37-.47.16-.95.33-1.42.49-.73.24-1.46.5-2.19.74-.07.02-.19-.02-.26,0-.3-.4-.71-.65-1.16-.86,1.56-.31,3.41-1.38,4.64-2.33.38-.1,1.38.57,1.29.98Z" fill="#bbdced"/>
    <path d="M26.2,29.56c-.32.44-.64.61-1.16.74-.43.13-.86-.04-1.29-.49-.38-.48-.75-.99-.9-1.59l1.81.92c.46.09,1.11.38,1.55.43Z" fill="#bedaea"/>
    <path d="M26.58,30.9l-.13.06c.62.52-.16.21-.52.43-.34-.14-.44-.17-.77-.37-.33-.18-.1-.57.26-.49.28.1.9.31,1.16.37Z" fill="#28476f"/>
    <path d="M25.04,30.29c.09.04.2.18.39.25l-.26.49c-.37-.22-.73-.44-1.03-.74-.13-.13-.27-.34-.39-.49.43.14.87.32,1.29.49Z" fill="#26456b"/>
    <path d="M44.25,46.46c3.05-.27,6.3-.32,9.28.37,1.45.11,2.96.4,4.38.49l.64.55c.09.33-.34.09-.39.24-.19.6.41.36.51.63.12.32-.25.5-.25.78l.39.12.19-.49c.53.31-.19.89-.51.86-.13,0-.13-.49-.46-.38.14.57-.44.36-.63.51-.03.02,0,.13-.45.47-.07.06-.25.59-.6.68-.07.26.14.17.25.25.43.34-.43.73-.38-.07-.22.01-.31.47-.45.48-.16.01-1.03-.58-1.23-.72-.17.77.46.59.64,1.1l-.64-.31c-.6,0,.13.67,0,.8-.29,0-.84-.32-.65.18.06.16.5-.11.39.31-.16-.03-.96-.23-1-.27-.09-.07-.02-.51-.35-.46s.03.61-.07.73l-.51-.24c-.08.09.1.93.39.98l-.05.32c-1.12.77-1.81,2.01-2,3.3l-.28.18c.3.61.35,1.18.13,1.72-.04.68.29,1.29.99,1.82,1.18.94,1.55,1.55.25,2.49-.66.13-.34-.89.06-1.07l-.16-.25c-.13.27-.34.42-.63.43q-.22.3,0,0c.22-.33.68-.26.63.09-.03.2-.58.86-.87.84-.47-.03-.8-.77-.4-1.06.09-.28.1-.45-.26-.37q-.33.2,0,0c.16-.38.55.25.26.37-.05.21-.17.44-.37.67.64.51,1.38,2.45,0,1.43-.2-.49-.38-.89-1.02-.68-.43-.37-.51-.2-.18.2-.09.45-.4.81-.94,1.08.93.46-.54,1.11-.48,1.05.64-.65,1.43.65.44.79.14.38.18.69-.14,1,.12.39.03.59-.28.6-.08,0-.17,0-.26,0-.21-.07-.38-.25-.5-.54-.23.54-.61.56-.91.07-.33.19-.66.28-.99.28-.17-.3-.73.1-.7.44-3.79.1-7.51-.2-11.22-.86-.25-.11-.18-.22-.05-.4-.69.32-.98-.37-.47-.82-.58.02-.7-.37-.24-.72.5-.38.95-.76,1.27-1.36-.27.4-1.07,1.51-1.48,1.6-.31.07-.44-.02-.58-.27-.76.66-1.37.16-.54-.54l.12-.65c.61-.3,1.14-.7,1.59-1.21.25-.04,1.48.92.88,1.07.24-.33.47-.69.69-1.07-.28.88-.76.88-1.46-.02-.37.23-.72.54-1.05.92-.88-.13-.31-.71.11-1.07-.38-.22-.11-1.17.3-.96.36-.12.79-.16,1.29-.12.06-.15.29-.27.46-.34.33-.14,1.13-.47,1.35-.28-.04-.24.14-.44.56-.61.25-.33.5-.45.73-.37-.07-.31.38-1.25.77-1.23l-.13-.37c.51-1.25.36-2.55-.43-3.67l.05-.38-.34-.03c-.18-.12-.95-.98-.95-1.19-.26.24-.94-.17-.9-.49-2.91-.47-5.69.49-6.4,3.46l-.31.21-.08,1.69c-.19.08-.31.28-.35.6-.88.69-.7-.94-.63-1.44l-.3-1.29c-.31.09-.42.01-.44-.29,0-.08,0-.16,0-.25.16-.36.32-.71.49-1.04-.23-.2-.24-.51-.04-.94l-.06-.22c1.17-5.23,4.81-6.44,9.93-7.35.38-.07,1.5-.17.77-.25,2.39-.14,4.78-.25,7.22-.25Z" fill="#65cbe3"/>
    <path d="M25.94,56.76c.37.31.5-.26.9-.24.1.12-.27.59-.26.79,0,.06.2.01.27.25.18.56.02,1.55,0,2.14.51.05.24-.4.37-.56.09-.11.37-.13.4-.26.08-.3.04-.92.13-1.38l.24.25c.04.78.09,1.56.14,2.32.39.09,1.14.96,1.03,1.35.28-.07.58.08.9.44.53.15.83.37.91.66.26-.27.73-.11.77.25.17-.06.3-.06.26.12l-.32.12c.65-.08.03.26.05.54,0,.11.39.15.39.25,0,.05-.67.6-.77.74.17.61.8-.47,1.06-.59.37-.17.44.16.65.14.41-.04.58-.81.99-.53-.3.35-.46.55-.9.74.48.52.7-.29.8-.39.12-.11.83-.33.99-.48.14-.12.1-.32.23-.43.12-.1.84-.68.94-.61l-.94,1.18c-.37.12-1.26.56-1.05,1.02.35-.37.84-.59,1.23-.92.25-.21,1.95-2.1,2.19-1.9-.61.73-1.35,1.46-2.06,2.11-.22.2-.75.43-.99.75-.08.11-.03.3-.04.32-.08.08-.45-.13-.57-.13-.08,0-.06.2-.17.25-.09.04-.26-.02-.3,0,.03-.59-.42.02-.64.12-.09-.4.13-.36.38-.55v-.18c-.5.23-.3-.51-.58-.37-.34.18-.94,1.28-1.47,1.23.02.56,0,.75-.53,1.03.25.32.2.09.38,0,.68-.37.1-.35.45-.91.26.32-.08.88.45,1.1l-.13-.73c.5-.17.12.66.45.49.36-.18.8-.96,1.23-1.22-.02.39-.69,1.11-.98,1.47-.02.02-.63.38-.24.37.91,0,.6,0,.61-.34,0-.15.07-.25.23-.28.05.36.1.56.52.49-.24.72-1.46.23-1.1,1.1l1.1-.49-.64.98c-.15-.03-.36.03-.52,0-1.06-.2-2.28-.52-3.32-.83-.15-.04-.46-.25-.55-.03-1.34-1.52-1.77-2.75-2.19-4.66-.08-1.64-.21-3.24-.39-4.9,0-.41-.02-.82,0-1.23Z" fill="#67c8e1"/>
    <path d="M25.94,57.98c.32.86.33,1.79.39,2.69l.58-.36.19-.37-.02.59c-.18-.11-.75.54-.76.59-.07.4.41,1.3,0,1.75-.39-1.79-.42-3.08-.39-4.9Z" fill="#65c5da"/>
    <path d="M26.33,54.3c.75.2.18.22.14.34-.27.72.01.42.3.76s-.17.19-.36.36c-.08.07-.06.85-.46.74.05-.76.22-1.47.39-2.21Z" fill="#67c8e1"/>
    <path d="M21.17,56.75h-.26s0-.61,0-.61c.18-.08.31.56.26.61Z" fill="#69c6e1"/>
    <path d="M58.43,61.9c1.14.03.27.59.52.86l.64-.06c-.69.51-1.24,1.15-1.81,1.78.53-.17.3.49.71.49.18,0,.09-.32.1-.34.44-.48,1.61-.84,1.86-1.35.08-.16.51-1.35.53-1.47.05-.37-.27-.58-.16-1.02.02-.1.22-.8.24-.84.13-.26.53-.22.07-.68l.51.06c-.1.85-.26,2.14-.52,2.94-.06.2-.55,1.3-.64,1.47-2.16,3.7-8.6,4.84-12.64,5.27-.13.01-.26-.01-.39,0,.15-.25-.01-.61,0-.78,0-.09.26-.03.27-.25.01-.27-.16-.53-.14-.8l.45-.02c.33-.17-.56-1.03-.65-.1-.57-.31.39-.71.19-.86-.12-.1-.52.24-.64.06.15-.74.88.18,1.03-.25.12-.35-.57.03-.39-.49.02-.07,1.1-.66,1.03-.98-.02-.11-.16-.23-.31-.06-.26.28-.97,1.12-1.23,1.28-.19.11-.31.11-.26-.12.81-.69,1.53-1.49,2.26-2.27.51.01-.1.36-.07.55.09.44.34-.08.37-.1.35-.31.21.13.31.25.08.09.24.12.33.24.19.26.23.8.66.78.05-.05-.57-1.09-.66-1.25-.06-.1-.24-.11-.25-.17-.04-.37.34-.66.65-.78-.08-.33.18-.34-.26-.37-.23.41-.37.67-.39,0,.13,0,.26,0,.39,0,.09-.17.12-.32.26-.52.03-.05.55-.58.64-.46.27.33-.59.55-.63.81-.03.17.37.39.25.53-.02.03-.19-.02-.26,0,.25,1.06.26,1.04,1.03.3.11-.28-.37-.2-.39-.18-.02.02.04.69-.26.37-.27-.3.24-.34.26-.37.05-.07.37-.52.39-.55.11-.23-.54-.19-.26-.43.19-.16,1,.53.9.89-.03.11-.92.57-.26.82-.13-.46.39-.39.49-.7.25-.76-.81-1.28-1.27-1.81-.12-.14-.59-.66-.61-.7-.09-.14-.1-.81.1-.95.11.03.11.08,0,.12.19-.07.24.06.13.37.33-.18.88.45.64.74.3-.02.58.18.85.6.46.22.69.47.7.74.3-.2,1.44.28,1.55.61l2.31-.36c.51-.31.98-.43,1.43-.37-.09-.23-.04-.27.13-.12.04-.11.09-.11.13,0Z" fill="#67cae3"/>
    <path d="M47.22,69.01c-.35.03-.66.1-1.03.12-.3-.1-.56-.1-.77,0-.44.02-.82.11-1.29.12l-.39-.24c.37.06.11-.21.25-.3.11-.07.3-.02.4-.14.17-.19.26-.98.5.08.13-.12.62-.11.63-.13.05-.09-.02-.31.01-.36.12-.15.6.64.77.49.55-.49-.68-.7-.64-1.22.62.31,1.54.88,1.55,1.59Z" fill="#67cae3"/>
    <path d="M45.41,69.13c-.03-.2.04-.51.32-.49.04,0,.07.48.45.49-.26.02-.52-.01-.77,0Z" fill="#65cbe3"/>
    <path d="M63.72,60.06c0,.1-.11.29-.13.49.01.26-.03.5-.13.74,0,.04,0,.08,0,.12l-.32-2.15c.12-1.1.06-1.52.42-2.6.08-.24-.08-.6.16-.77-.02,1.38.12,2.78,0,4.17Z" fill="#47b6d8"/>
    <path d="M63.46,61.29c.03-.24.11-.56.13-.74-.02.23.1.6-.13.74Z" fill="#41aed4"/>
    <path d="M55.6,39.36c.51,0,1.17.05,1.68.12.16-.31.37-.2.39.12.02.53-.54,1.25-1.16.98-.73.04-1.58-.17-2.32-.25-.24.11-.61.06-.77-.12.37-.26,1.06-.05,1.16-.12.03-.02-.24-.39.18-.62.32-.17.52-.11.85-.12Z" fill="#1a3b5f"/>
    <path d="M57.53,37.52l.12-.34c.05-.94.5-.48.52.21.16.73.03,1.6.26,2.33-.3.28-.59.24-.77-.12-.18-.03-.34-.12-.39-.12.1-.63.06-1.36.26-1.96Z" fill="#3db1dc"/>
    <path d="M59.47,30.29c-.11.19-.4.03-.52.21-.09.14-.32.48-.38.59-.2.36.58-.17.39.3l-1.42.25c-.13-.05-.25-.08-.39-.12-.38-.11-.62-.2-1.03-.25l-.03-.17c.5-.12.72-.33.67-.63.57.04,1.13.02,1.68-.06.05-.37.88-.46,1.03-.12Z" fill="#214169"/>
    <path d="M58.05,34.58c0,.95.09,1.87.13,2.82-.04-.2-.19-.68-.39-.49-.02.02,0,.26-.06.37-.06.1-.19.23-.2.24.03-.84.15-1.68.26-2.51.03-.23-.16-.5.25-.43Z" fill="#53b9df"/>
    <path d="M58.43,39.72c.46.09.92.3,1.42.25,0,.07-.13.24-.14.43-.01.51.41.6-.25.8l-.36.16-2.21-.35-.26-.29c-.06-.01-.11-.07-.13-.12.64-.04.64-.64,1.16-.98.26.04.52.07.77.12Z" fill="#1e436a"/>
    <path d="M62.95,29.31s-.09.08-.13.12c-.47.47-1.07.82-1.68,1.1l-.77-.37c-.11-.22.06-.3.52-.25.23-.53,1.11-.72,1.68-.61-.11-.43.55-.46.39,0Z" fill="#20426c"/>
    <path d="M59.72,29.19c.47-.06.86.19,1.16.74-.15.05-.38.21-.52.25-.29.07-.61.07-.9.12s-.71.08-1.03.12c-.5.08-1,.1-1.52.05-.09.29-.27.2-.41-.05-.82.06-1.64-.05-2.46-.33l-.12-.28s-.06.06-.1.07c-.34.08-2.4-.78-2.8-1l-.07-.29c-.11-.34.14-.62.52-.49-.14-.37.42-.77.77-.61,2.04,1.44,4.98,1.97,7.48,1.72Z" fill="#bdddec"/>
    <path d="M54.82,45.48v.12c-.37.21-.23.87-.31.98-.18.26-.78-.03-.98.24-3.07-.22-6.21-.36-9.28-.37-.08-.48.74-.16.97-.24-.08-.7.36,0,.4,0,.05,0,.7.01.74,0,.03,0,.25-.3.47-.31.06-.31-.24-.15-.44-.18s-.02-.4.05-.49c.13-.07.31-.11.52-.12.76,0,1.61.12,2.26.12h2.32c1.02,0,2.19.31,3.29.25Z" fill="#1c3f64"/>
    <path d="M59.47,41.2c.08.02.18.08.26.12-.06.46.26,1.5-.45,1.54-.5.03-.17-.23-.26-.44-.29-.65-.7.23-.81.36-.09.1-.38.25-.39.27-.04.14.15.6-.1.97-.07.1-.25.02-.33.07-.24.17.1.48-.64.05.12-1.01.02-2.42-.13-3.43.91.17,1.95.23,2.84.49Z" fill="#3dacd3"/>
    <path d="M53.4,25.88c-.29.33-1.47,1.6-1.89,1.55-.06,0-.12-.04-.17-.08-.05.12-.24.3-.39.25-.32.56-1.52,1.02-2.18,1.15l-.27-.17c-.41.09-.93-.95-.64-1.23,2.39-.66,4.62-1.88,6.38-3.55l-.84,2.08Z" fill="#beddee"/>
    <path d="M47.86,27.35l.64,1.23c.06.33,0,.36-.26.12-.46.57-1.91.81-2.58.49-.41.11-1.18.21-1.08-.32-.38-.26-.53-.52-.47-.78-.11-.03-.11-.08,0-.12,1.22-.06,2.57-.29,3.74-.61Z" fill="#c2deed"/>
    <path d="M44.12,27.96v.12l-.11.23h-1.79c.1.84-.21,1.13-.93.87-.87-.01-1.75-.24-2.58-.49-.2-.06-.37-.19-.52-.25.03-.5.2-.83.52-.98,1.78.43,3.58.58,5.42.49Z" fill="#c3dfed"/>
    <path d="M37.03,26.98c.13.27-.04.52-.52.74-.06-.03-.26.02-.52-.12l-.4.05c-.81-.54-1.59-1.13-2.18-1.89-.07-.12-.88-1.01-.32-1.1,1.12.91,2.57,1.8,3.93,2.33Z" fill="#c4dfef"/>
    <path d="M38.7,27.47c.27.32-.05.2-.09.28-.14.28,0,.45-.43.7-.71-.25-1.01-.41-1.68-.74-.03-.45.26-.4.52-.74.52.2,1.13.36,1.68.49Z" fill="#b8daeb"/>
    <path d="M62.95,29.31l-.08-.1-.31.1c-.43.04-1.17.03-1.16-.49,1-.3,1.87-.89,2.71-1.47l-1.16,1.96Z" fill="#bcdbed"/>
    <path d="M36,27.6c-.26.17-.49.17-.52.49-.31-.26-.97-.6-1.29-.98s-.53-.92-.77-1.35c.91.53,1.66,1.33,2.58,1.84Z" fill="#22466e"/>
    <path d="M61.4,28.82l1.16.49c-.58.19-1.05.41-1.68.61-.66.13-.63-.88-1.16-.74.34-.03,1.32-.26,1.68-.37Z" fill="#c8e1ef"/>
    <path d="M53.4,25.88c-.27.47-.79,1.21-1.16,1.59-.19.2-.57.42-.77.61-.81.2-.56-.34-.13-.74l2.06-1.47Z" fill="#24446e"/>
    <path d="M57.66,54.06c.39.39-.18.63-.63.56-.71.48-1.41,1.91-.02,1,.22-.43.46-.82.94-.36,1.53-.34.72,1.17,0,1.73l-.23,1.07c-.43.25-.65.59-.66,1.02-.28-.09-.62-.1-.82.13-.02.47-.11.92-.26,1.35l-.11.13c-.78-.24-1.36-.15-1.72.26-.3.02-.48.21-.55.56-.18.45-.42.66-.71.64-.96-.53-.9-.56-1.55-1.35.44-.55.96-1.04,1.54-1.47.11-.33.36-.96.78-.86.08-.19.28-.28.59-.28,3.14-1.72-1.85-4.52-1.65-.85.2.24.25.46.15.64.17.22.06.37-.33.48.02.57-.18.89-.6.97l-.12.32c-.35.11-.69.22-1.01.32-.07-.13-.09-.23-.13-.37.08-.27.18-.62.32-1.06-.3,0-.45-.26-.45-.78.08-1.39,1.04-3.09,2.32-3.8,1.52-.83,3.39-.73,4.9,0Z" fill="#1a3e63"/>
    <path d="M60.11,57c.06.42-.12.8-.54,1.13.11.52.03.97-.23,1.35.53.07.39.69-.12.77v.18c-.2.27-.89.49-1.18.29l-.06.13c.24.26.64.77.33,1.05-.03,0-.08.1-.13.12-1.03.12-1.04-.45-.9-1.23.12-.39.13-.77.03-1.15-.24-.26-.59-.41-1.06-.45.05-.33.6-.2.64-.25.05-.05-.03-.37,0-.52.03-.09.58-.43.61-.48.04-.08.18-.98.22-1.07.15-.32,1.36-1.1.59-1.6l-.26.61c-.65-1.24-.61-.29-.83-.12-.12.09-1.15.66-1.24.61.19-.28-.09-.49-.13-.68-.01-.06.25-.04.25-.11,0-.08-.14-.21-.13-.36,0-.07.17-.08.21-.13.29-.44.38-.28.5-.44.09-.11.04-.34.07-.37.04-.04.76.34.9-.24,1.27.61,2.09,1.62,2.45,2.94Z" fill="#1c3f66"/>
    <path d="M60.11,59.45c-.2.12-.28.29-.26.49-.07.16-.17.34-.26.49-.18.17-.29.24-.39,0-.7-.41.13-.31.39-.67l-.64-.06c-.02-.32.32-.35.38-.68s-.07-.76,0-1.08c.02-.08.2-.08.22-.11.03-.05-.1-.2-.09-.21.15-.12.53.06.64-.62.23.85.26,1.6,0,2.45Z" fill="#1b3f63"/>
    <path d="M59.21,60.43c.13,0,.26,0,.39,0-.36.59-.64.97-1.16,1.47-.04,0-.09,0-.13,0-.16-.23-.24-.54-.39-.77-.07-.1-.27-.06-.26-.15s.45-1.01.52-.92c.03.92.16.47.49.4.2-.04.35-.03.54-.03Z" fill="#1c416b"/>
    <path d="M58.95,51.85c-.75.07-.4-.06-.52-.4-.04-.11-.25-.09-.26-.17-.02-.15.19-.49.14-.53-.07-.06-.58.2-.37-.41.16-.47.58.06.89,0,.59-.12.55-.73.84-.68.33.05.09.25,0,.36-.2.26-.89.95-.95,1.2-.08.3.29.37.24.64Z" fill="#65cbe3"/>
    <path d="M59.98,51s-.19-.09-.26-.05c-.43.23-.04.57-.02.75.03.38-.11.66.15,1.14-.43.02-.58.09-.52-.37-.97.2-.34-.43.13-.67l-.51-.61c.19-.03.66-.67.71-.67.04,0,.42.35.32.49Z" fill="#65cbe3"/>
    <path d="M57.93,53.07c.47.28.3-.49.7-.49.25,0,.54.48.84.56-.4.56-.66-.19-.71-.18-.2.05-.43.43-.75.35-.27-.07-.73-.61-.22-.72.02.1.11.47.14.48Z" fill="#65cbe3"/>
    <path d="M56.73,52.62s.41.48.09.58l-.45-.43c-.1-.24.23-.23.36-.15Z" fill="#65cbe3"/>
    <path d="M58.95,63.74l-.64.73c-.15-.23.52-.84.64-.73Z" fill="#67cae3"/>
    <path d="M57.85,51.37c.37.25.12.39-.13.61-.37-.25-.12-.39.13-.61Z" fill="#65cbe3"/>
    <path d="M58.3,52.1s.08.46-.19.37c-.4-.14.07-.49.19-.37Z" fill="#65cbe3"/>
    <path d="M59.85,59.94c-.27-.39-.11-.35.26-.49-.09.28-.19.34-.26.49Z" fill="#1c3f66"/>
    <path d="M59.34,48.42c-.07.42-.72.07-.52-.12.07-.07.39.15.52.12Z" fill="#65cbe3"/>
    <path d="M58.69,53.57c.04.17-.07.33-.26.37v-.37s.26,0,.26,0Z" fill="#65cbe3"/>
    <path d="M41.28,29.31c.12-.09.26-.09.39,0l1.16.12c.42-.34.88-.34,1.29,0,.49-.09,1.39-.24,1.18.32.96.06.88.41-.01.54-1.24.13-2.36.14-3.61.12-.14-.03-.27-.07-.39-.12-.22-.04-.44-.08-.64-.12-.04,0-.09,0-.13,0l1.29-.18c-.27-.39-.16-.67-.77-.55l.26-.12Z" fill="#1f3d60"/>
    <path d="M53.92,29.8c.16.36-.3.89-.77.74-.96-.29-1.89-.7-2.84-.98-.2-.54.13-.78.64-.98l2.97,1.23Z" fill="#21426a"/>
    <path d="M48.25,28.7h.29c.08.28.17.52.36.74-1.34.37-2.15.7-3.61.86l.64-.24h-1.03s.26-.61.26-.61c-.34,0-.69,0-1.03,0-.16-.38.26-.39.61-.38.13.34.62.22.93.14.89-.11,1.71-.23,2.58-.49Z" fill="#23436b"/>
    <path d="M50.95,27.6c.24.59.05.96-.56,1.33-.02.49-.17.66-.47.51-.47-.12-.55-.13-1.03,0-.49.14-.46-.4-.64-.74.09-.03.17-.09.26-.12.72-.24,1.81-.62,2.45-.98Z" fill="#1b395f"/>
    <path d="M56.5,30.41c-.16.42-1.23.87-1.68.61-.6-.04-1.13-.32-1.68-.49l.39-.12c-.31-.6.15-.17.39-.61l2.58.61Z" fill="#1e3e61"/>
    <path d="M58.43,30.41s-.14.11-.31.13c-.38.05-.84-.04-1.24,0,.32.79-.26.47-.77.73-.42-.05-.9.11-1.29-.12v-.12c.52.03.99-.53,1.68-.61.59-.07,1.32.05,1.93,0Z" fill="#26466b"/>
    <path d="M51.34,27.35l.13.06c-.12.14-.5.37-.38.55.01.02.36-.17.39.12-.18.17-.33.3-.52.49-.14.14-.48.36-.51.45-.11.32.37.6-.14.53-.13-.04-.3-.1-.39-.12.59.06-.08-.29,0-.36.01-.01.16,0,.24-.08.27-.29.58-.38.6-.41.03-.04.03-.81.19-.99.07-.04.16-.28.39-.25Z" fill="#1f3e66"/>
    <path d="M41.28,30.29c.14,0,.32-.04.39.12-.24,0-.63.08-.77-.12.09-.11.26-.07.39,0Z" fill="#bedbe9"/>
    <path d="M41.28,30.29c-.13,0-.26,0-.39,0-.08,0-.18,0-.26,0v-.12c.21,0,.54-.07.64.12Z" fill="#24446a"/>
    <path d="M44.12,28.09s.66.6.69.65c.2.42-.46.53.86.45-.03,0-.14.11-.31.13-.4.04-.94-.13-1.24.12-.43,0-.86,0-1.29,0l-1.16-.12c-.13,0-.26,0-.39,0v-.12c.21,0,.43,0,.65,0v-1.09c.09-.07,2.09-.04,2.19,0Z" fill="#bcdbeb"/>
    <path d="M46.96,45.12s-.25.12-.52.12c-1.84,0-3.75-.11-5.54-.12h6.06Z" fill="#1a385e"/>
    <path d="M54.18,40.34c-.24.35-.75,0-.9,0,.05-.03.08-.09.13-.12.28.03.53.1.77.12Z" fill="#95c7d9"/>
    <path d="M42.32,62.64c.35-.38.39-.61.32-1.1.28-.32.16.12.26.13.22.02.32-.02.45-.19-1.01-.43.79-.81-.51-1.22-.01-.18.65-.61.84-.67.41-.15,0,.56.06.61.36.28.81-.9,1.29-.73.04.2-.39.41-.39.44-.11.85.36.14.48.05.27-.2.17.03.36-.29.1-.17.32-.3.45-.19.27.24-.35.48-.39.55-.06.12-.07.35.19.31.47-.08.71-.77,1-.9.72-.33.4.34.68.41.26.06.27-.3.34-.34.53-.29.28.35.38.45.05.05.31,0,.44.13.05.05-.1.2,0,.26.22.14.68.01.38.49-.06.09-.29.02-.32.05-.4.31.22.44.39.62s.11.4.13.42c.07.08.28.06.26-.19-.03-.4-.5-.52.12-.79.09.34,0,.73.02,1.05,0,.17.19.29.19.36s-.18.19-.2.36c-.02.22.31.55-.14.68l-.26-.49c-.03.16-.46.65-.55.7-.1.06-.2.02-.22.03-.35.58-.97,1.16-1.48,1.66-.08.08-.33.44-.46.3-.12-.13.18-.34.26-.43.5-.57,1.06-1.11,1.68-1.53.05-.09.03-.28.12-.4.15-.22.66-.39.89-.79.1-.17.16-.43-.16-.15l-.27.11-.12-.49c-.39.23.02.54-.13.85s-1.18.99-1.42,1.35c-.21-.12.04-.27.13-.37.35-.4,1.25-.97,1.03-1.47-.5.43-.91,1.1-1.36,1.53-.55.53-1.57,1.6-2.32.92.14-.37.86-.65,1.29-.61-.15-.32.45-.7.77-.61-.16-.35.26-.95.64-.98.07-.22.11-.4,0-.61l-.12.11c-.77-.33-.93-.39-1.24.47l-.32.03c.28.27-.34.77-.64.61-.22.34-.45.38-.77.12-.33.1-.63.1-.9,0-.1.34-.25.33-.39,0-.28.35-1-.28-.77-.61Z" fill="#67cae3"/>
    <path d="M36.64,55.53l-.12.26c-.61.09-1.05.6-1.12,1.14-.25.03-.33.21-.21.54-.39.55-.6.94-.56,1.59l-.7.02c-.08.26-.26.54-.53.83.14.32.23.61.27.88.1.31,0,.34-.26.12-.45.03-.88-.03-1.29-.19-.52.4-.81.96-.87,1.68l-.29.11c-.98-.37-1.07-.38-1.81-1.1l-.15-.25c.78-.67,1.39-1.39,1.84-2.16v-.54s.15-.24.15-.24c.96.02,1.82-.68,1.57-1.63l.2-.21c-.05-.2-.06-.24.13-.12.12-.19.35-.24.67-.15.11-.35.32-.51.68-.57.29-.49.58-.92.89-1.29l.21.04c.74.47.79.54,1.29,1.23Z" fill="#1a3e63"/>
    <path d="M34.45,53.81c.12.35-.16.47-.83.35-.11.36-.27.7-.48,1.01.47.46.23.73-.24,1.09,0,.03-.09.09-.13.12l-.3-.05c-1.05-1.79-3.64-.2-2.29,1.5l-.13.27c.33.25-.02.44-.33.45-.12.43-.38.67-.77.72.01.45-.42.76-.83.79-.41-.9-.45-1.6-.39-2.57.55-3.04,3.61-4.78,6.71-3.68Z" fill="#1a3c62"/>
    <path d="M36.64,55.53c1.06,1.45,1.22,2.72.52,4.41-.45.33-1.06-.38-1.3-.77-.35.2-.76.27-1.15.16-.21.25-.71.05-.77-.25.24-.11.46-.1.52-.12.03-.01-.1-.36-.04-.61.12-.48.54-.86.54-.92-.03-.44-.41-.57.4-.68l-.26-.18c.55-.54.66-.98,1.55-1.04Z" fill="#1c4066"/>
    <path d="M37.16,59.94c-.26.61-.33.72-.77,1.23-.37.31-.52-.07-.46-.45-.71-.3-1.23.6-.69,1.14l-.14.29c-.85.47-.87.43-1.81.61-.39.1-.56.06-.52-.12.05-.33.12-.3.26,0,.5-.59.53-.9.39-1.59-.11-.04-.11-.08,0-.12.08-.02.19-.11.26-.12l.18-.25c.71.14.99-.27.85-1.22.14-.33.52-.1.82-.26.25-.14.13-.42.41-.35.24.67.58.9,1.23,1.22Z" fill="#1a3d61"/>
    <path d="M45.15,63.13c.31-.27.27.05.23.37.31.18.53.38.67.61-.43.27-.71.54-1.29.61-.95.12-1.88-.05-2.71-.49.26-.44.6-.77,1.03-.98.1.03.27-.01.39,0,.28.1.58.1.9,0,.26-.04.52-.09.77-.12Z" fill="#1c3f64"/>
    <path d="M35.35,54.3c-.25.08.02.37-.06.49-.09.13-.27-.01-.3.02-.12.14-.44.79-.57.92-.09.09-.33.06-.49.21-.09.09,0,.29-.11.37-.13.09-.73,0-.91-.06,0-.1-.12-.27-.11-.31.04-.16.37-.13.37-.24,0-.22-.36-.47-.39-.61-.01-.07.19-.04.25-.15.08-.15.37-.96.41-.99.14-.12.83.14,1.01-.14.43.15.56.27.9.49Z" fill="#1c4067"/>
    <path d="M40.9,61.66c.88-.17.99.38,1.29.98,0,.36-.26,1.4-.77,1.1-.48-.44-1.15-1.17-.77-1.84.2-.01.32-.05.26-.25Z" fill="#1c4064"/>
    <path d="M35.09,62.15c-.14-.3-.43-.67-.36-1.03,0-.05.57-.73.61-.76.04-.02.87.17.91.19.05.04-.31.52.13.61-.52.58-.62.61-1.29.98Z" fill="#1b4168"/>
    <path d="M43.09,63.25c-.24.44-.44.93-1.03.98-.29-.15-.42-.28-.64-.49.49-.24.24-.85.77-1.1.04.01.1-.02.13,0,.13.07.51.55.77.61Z" fill="#1e456c"/>
    <path d="M50.44,57.86c.21.06.03.46.21.5.38.07.62-.12.43.64-.02.09-.2.08-.21.12-.13.26.15.66-.3.58-.01-.04,0-.08,0-.12-.12-.58-.16-1.12-.13-1.72Z" fill="#18395c"/>
    <path d="M32.77,62.64c.08,0,.31.22.52.12-.61.12-.5.25-1.29.12-.03,0-.14-.09-.26-.12-.25-.46.96-.58,1.03-.12Z" fill="#1a3e63"/>
    <path d="M40.9,61.66c.46.18.24.42-.13.61l-.13-.37c.06-.11.12-.22.26-.25Z" fill="#224a71"/>
    <path d="M46.83,67.66c.41-.03.44-.03.39.37-.11-.1-.64-.39-.65-.44-.03-.16.08-.55.33-.3l-.07.37Z" fill="#67cae3"/>
    <rect x="50.83" y="62.27" width=".26" height=".37" fill="#67cae3"/>
    <path d="M30.84,58.47c.08.06.24.12.26.21.21,1.19-1.42,1.79-1.94,2.73-.49-.48-.73-.69-1.03-1.35l.27-.49.25.12c.08-1.02.31-.57.63-.75.04-.03.14-.4.28-.55.15-.17.42,0,.52-.29.23-.31.89,0,.77.37Z" fill="#1c426a"/>
    <path d="M33.42,60.92s0,.09,0,.12c.17.19.13.41-.11.65.11.43.02.74-.27.94-.08.01-.18-.01-.26,0-.28-.03-.85-.07-1.03.12-.35-.09-.45-.12-.77-.25l.4-1.53c.29-.03.66-.55.7-.56.14-.03.28.2.41.22.27.05.7-.17.94.27Z" fill="#1c4268"/>
    <path d="M55.98,60.55c.19-.16.25-.09.13.12.08.35.16.78-.27.96-.09.4-.19.72-.68.69-.04.36-.28.5-.73.44-.77-.14-.93-.27-1.55-.61.26-.47.73-.91.65-1.47.67.27.42-.03.72-.23.38-.26,1.32-.07,1.73.11Z" fill="#1c4269"/>
    <path d="M56.37,60.8c.26.06.52.12.77,0,.03-.11.07-.1.13,0,.4.09.09.79.27.96.08.07.57-.06.63.26-1.46.67-2.01,1.06-3.74.74.6-.09.39-.6.51-.68.1-.07.29.03.39,0,.39-.15.06-.6.13-.66.03-.03.29.07.4-.07.17-.23-.16-.53.25-.66.25-.24.29-.21.26.12Z" fill="#1a3e63"/>
    <path d="M53.66,58.47l-.52.8c.03.44-.22.23-.43.44-.38.37-.81,1.07-1.37,1.09-.12-.15-.58-.62-.64-.74l.39-.61c.78.58.35-.33.39-.37.06-.06.37.18.52.07.19-.14.1-.63.24-.85.1-.15.43-.13.53-.33.2-.3.97.16.9.49Z" fill="#1b4268"/>
    <path d="M53.66,58.47c-.1-.01-.8-.39-.9-.49-1.31-1.2.16-3.37,1.9-2.48s.61,3.21-.99,2.97Z" fill="#fdfefe"/>
    <path d="M57.27,60.8s-.08,0-.13,0c-.25.12-.52.06-.77,0-.06-.02-.17-.08-.26-.12-.04-.02-.08-.1-.13-.12-.2-.42-.19-1.1.26-1.35,1.02-.57,1.99.8,1.03,1.59Z" fill="#f3f8fa"/>
    <path d="M56.37,54.43c-.05-.16.19-.62.26-.49.04.22,0,.43-.26.49Z" fill="#1c3f66"/>
    <path d="M42.83,29.43c-.36,0-.91.1-1.16-.12.36,0,.91-.1,1.16.12Z" fill="#24446a"/>
    <path d="M47.47,61.9c.11.2.07.4,0,.61-.15.37-.38.68-.64.98-.36.13-.96-.68-1.03-.98.32-.42.26-1.11,1.07-.96.12.02.53.26.61.35Z" fill="#1d4064"/>
    <path d="M46.83,63.49c-.33.37-.38.36-.77.61-.53-.16-.86-.23-1.03-.8.42-.12.12-.16.13-.18.21-.3.52-.45.64-.61.6.2.65.59,1.03.98Z" fill="#1f456c"/>
    <path d="M44.25,60.31c.12.26-.52,1.1-.77.86-.11-.53.19-.29.39-.43.22-.16-.03-.52.39-.43Z" fill="#65cbe3"/>
    <path d="M44.38,63.25c-.22.04-.64.33-.9,0,.29.03.61-.02.9,0Z" fill="#65cbe3"/>
    <path d="M46.96,60.31h-.26s0-.37,0-.37c.19.04.3.2.26.37Z" fill="#65cbe3"/>
    <path d="M47.47,62.51v-.61c.29.31.1.37,0,.61Z" fill="#65cbe3"/>
    <path d="M32.77,56.39c.45,1.23-.68,2.2-1.93,2.08-.23-.18-.66-.28-.77-.37-.04-.03-.36-.58-.39-.67-.74-2.13,2.4-2.96,3.1-1.05Z" fill="#fcfdfd"/>
    <path d="M34.71,59.33c.35.31.35.87.06,1.22-.32.4-.67.2-1.09.25-.85-.61-.64-1.29.26-1.72.23,0,.61.1.77.25Z" fill="#f4f7f9"/>
    <path d="M33.03,62.64c.13-.28-.02-.8.03-1.01.05-.19.33-.38.36-.58.64.4.38,1.44-.39,1.59Z" fill="#1a3e63"/>
    <path d="M32.13,65.09s-.15.41-.19.49c-.42-.21.01-.62.19-.49Z" fill="#67c8e1"/>
    <path d="M57.14,60.8c-.24.3-.55.08-.77,0,.25.02.53-.03.77,0Z" fill="#1c3f66"/>
  </g>
</svg>